<?xml version="1.0" encoding="utf-8"?>
<!-- Generator: Adobe Illustrator 25.0.0, SVG Export Plug-In . SVG Version: 6.00 Build 0)  -->
<svg version="1.1" id="Layer_1" xmlns="http://www.w3.org/2000/svg" xmlns:xlink="http://www.w3.org/1999/xlink" x="0px" y="0px"
	 viewBox="0 0 4992 4992" style="enable-background:new 0 0 4992 4992;" xml:space="preserve">
<style type="text/css">
	.st0{fill:#243036;}
	.st1{fill:#374550;}
	.st2{fill:#36444F;}
	.st3{fill:#2E3941;}
	.st4{fill:#252F36;}
	.st5{fill:#FFFFFF;}
	.st6{enable-background:new    ;}
</style>
<path class="st0" d="M690.1,2818.2l-399.4,106.6l-15.1-3l-8.1-49.2V1170.2l5.6-37l41.8-8.6c0,0,82.7,77.3,159.9,94.9
	c98,5,171.9-58.4,171.9-58.4l37.1,9.1l6.2,86.7v1561.3H690.1z"/>
<path class="st0" d="M2484.2,2818.2l399.4,106.6l15.1-3l8.1-49.2V1170.2l-5.6-37l-41.8-8.6c0,0-82.7,77.3-159.9,94.9
	c-98,5-171.9-58.4-171.9-58.4l-37.1,9.1l-6.2,86.7v1561.3H2484.2z"/>
<polygon class="st1" points="2334.4,401.1 2364.5,276.1 2367.7,238 2348.6,231.3 849.1,231.3 828.2,237.9 828.2,280.3 850.3,401.1 
	828.2,517 828.2,557.8 849.1,564 2348.6,564 2367.7,557.6 2364.5,521 "/>
<path class="st2" d="M1474.4,4750.6h-1177L103,4107.3c403.6-194.4,655.2-461.5,710.6-924.1l17.5-7.8l24.6,2.4
	c76.7,74.3,164.3,121.9,264.5,138c33.1,429.2,219.9,647.2,537.9,784L1474.4,4750.6z"/>
<path class="st2" d="M1875.3,4750.6h1177l194.4-643.2c-403.6-194.4-655.2-461.5-710.6-924.1l-17.5-7.8l-24.6,2.4
	c-76.7,74.3-164.3,121.9-264.5,138c-33.1,429.2-219.9,647.2-537.9,784L1875.3,4750.6z"/>
<polygon class="st2" points="4625.3,3947.6 3270.6,3947.6 3199.5,3175.4 3199.5,3144.1 3246.7,3137.5 4644.6,3137.5 4691.9,3142.6 
	4691.9,3182 "/>
<polygon class="st2" points="4691.9,3048.9 4655.4,3044.2 3233.6,3044.2 3199.5,3049.5 3194.7,3090.5 3199.5,3124 3233.6,3128.3 
	4655.4,3128.3 4691.9,3124.5 4697,3090.5 "/>
<g id="Layer_2_1_">
	<path class="st2" d="M3354.1,4130h-19c-20-11.6-24-53.1-20.2-109h9.6v-21.3h29.6L3354.1,4130L3354.1,4130z"/>
	<path class="st2" d="M3395.3,4130h19c20-11.6,24-53.1,20.2-109h-9.6v-21.3h-29.6L3395.3,4130L3395.3,4130z"/>
	<path class="st2" d="M3443.8,4133.6h15c15.8-11.6,19-53.1,16-109h-4.6v-21.3h-26.4V4133.6z"/>
	<path class="st2" d="M3531.2,4133.6h-15c-15.8-11.6-19-53.1-16-109h4.6v-21.3h26.4V4133.6z"/>
	<rect x="3362.3" y="3999.7" class="st2" width="26.6" height="134.3"/>
	<polygon class="st2" points="3565.3,4006.1 3558.5,4006.1 3554.8,4029.9 3545.5,4029.9 3545.5,4007.1 3537.1,4007.1 3537.1,4029.9 
		3537.1,4036.1 3545.5,4036.1 3553.9,4036.1 3560.6,4036.1 3561.4,4036.1 3561.4,4031 	"/>
	<rect x="3481.8" y="4019" class="st2" width="11.7" height="111.3"/>
	<rect x="3536.4" y="4040.9" class="st2" width="13" height="27.6"/>
	<rect x="3551" y="4041" class="st2" width="11" height="27.5"/>
	<rect x="3668.3" y="4526.5" class="st2" width="206.2" height="57"/>
	<rect x="3580" y="4652" class="st2" width="56.4" height="134.3"/>
	<rect x="3519" y="4651.2" class="st2" width="53.5" height="131.3"/>
	<polygon class="st2" points="3718.4,4466.6 3718.4,4487.9 3746.5,4487.9 3746.5,4499.5 3718.4,4499.5 3718.4,4519.5 3766.5,4519.5 
		3766.5,4466.6 	"/>
	<polygon class="st2" points="3818.8,4466.6 3818.8,4487.9 3790.6,4487.9 3790.6,4499.5 3818.8,4499.5 3818.8,4519.5 3770.7,4519.5 
		3770.7,4466.6 	"/>
	<polygon class="st2" points="3718.3,3998.6 3718.3,4019.8 3746.4,4019.8 3746.4,4031.4 3718.3,4031.4 3718.3,4051.4 3766.3,4051.4 
		3766.3,3998.6 	"/>
	<polygon class="st2" points="3818.6,3998.6 3818.6,4019.8 3790.5,4019.8 3790.5,4031.4 3818.6,4031.4 3818.6,4051.4 3770.6,4051.4 
		3770.6,3998.6 	"/>
	<path class="st2" d="M3562.8,4468c-4.4,0-9.3,1.1-14.1,2.7l-14,21.3h-57.2l-17.5-20c-28.2,4.1-50,31.8-50,65.5
		c0,34.3,22.6,62.4,51.6,65.7l16-18.2h57.2l13.1,19.9c5.4,1.3,10.5,2.1,15,2.1c32.4,0,58.7-31.1,58.7-69.5S3595.2,4468,3562.8,4468z
		"/>
	<polygon class="st2" points="3493.9,4658.5 3487.4,4620.2 3415,4588 3342.6,4620.2 3336.1,4658.5 3309.5,4679.5 3332.9,4792 
		3415,4792 3497.1,4792 3520.5,4679.5 	"/>
	<rect x="3666.2" y="4058.7" class="st2" width="205.8" height="56.3"/>
	<rect x="4254.1" y="4073.5" class="st2" width="89.9" height="55.6"/>
	<rect x="4254.1" y="4133.4" class="st2" width="89.9" height="55.6"/>
	<rect x="4254.1" y="4190.7" class="st2" width="89.9" height="64"/>
	<rect x="4254.1" y="4257.8" class="st2" width="89.9" height="64"/>
	<rect x="4019.6" y="4202.5" class="st2" width="37.9" height="119.5"/>
	<rect x="4088.4" y="4202.5" class="st2" width="37.9" height="119.5"/>
	<rect x="4157.5" y="4202.5" class="st2" width="73.5" height="119.5"/>
	<rect x="4060.5" y="4202.5" class="st2" width="25.5" height="119.3"/>
	<rect x="4128.5" y="4202.5" class="st2" width="25.5" height="119.3"/>
	<rect x="4236.5" y="4203.9" class="st2" width="12.7" height="119.3"/>
	<rect x="4080.5" y="4161.1" class="st2" width="90" height="35.7"/>
	<rect x="4025" y="4139.7" class="st2" width="89.3" height="15.5"/>
	<rect x="4125.4" y="4139.7" class="st2" width="89.3" height="15.5"/>
	<polygon class="st2" points="4032.6,4161.1 4021,4160.8 4024.5,4199.5 4046.6,4199.5 4049.9,4161.7 4039.4,4161.6 4039.8,4188.8 
		4033,4188.8 	"/>
	<polygon class="st2" points="4063.8,4161.1 4050.8,4160.8 4054.3,4199.5 4076.3,4199.5 4078.5,4161.7 4066.3,4161.6 4067.5,4188.8 
		4062.8,4188.8 	"/>
	<polygon class="st2" points="4233,4183.5 4233,4175 4252.3,4175 4252.3,4165.3 4173,4165.3 4173,4192.5 4252.3,4192.5 
		4252.3,4183.5 	"/>
	<path class="st2" d="M4278.1,4007.1h10.4v52.5h44.3l0.7-51.7l10-0.8v58c0,0-37.8,13.2-66.1-0.6
		C4277.5,4064.7,4278.1,4007.1,4278.1,4007.1z"/>
	<polygon class="st2" points="4288.9,3997 4294.2,4056.9 4329,4056.2 4332.9,3997 4319.1,3996 4314.9,4046.9 4307.2,4046.8 
		4302.3,3995.5 	"/>
	<path class="st2" d="M4594.3,4037c-1.7-24.8-22.3-44-47.1-44.1l0,0l0,0l0,0l0,0c-24.8,0-45.4,19.3-47.1,44.1l-13,188.5v29.3
		c0,33.3,26.9,60.2,60.2,60.2l0,0l0,0l0,0l0,0c33.2,0,60.2-27,60.2-60.2v-29.3L4594.3,4037z M4547.1,4029.4
		c6.9,0.8,12.4,12.2,12.4,26.1c0,14-5.5,25.4-12.4,26.1c-6.9-0.8-12.4-12.2-12.4-26.1C4534.7,4041.5,4540.2,4030.1,4547.1,4029.4z
		 M4547.1,4278.1c-27.7-1.1-26.1-31.7-26.1-31.7l26.1-0.2l26.1,0.2C4573.3,4246.4,4574.9,4277,4547.1,4278.1z"/>
	<rect x="1704.5" y="4872" class="st2" width="3092.7" height="17"/>
	<rect x="1704.5" y="4911.1" class="st2" width="3092.7" height="17"/>
</g>
<g>
	<path class="st1" d="M1592.7,759.4v31.3v488.9H816.8l-2.5-54c0,0,44.3-60.8,156.7-325.3c128.8-240.6,375.5-275.5,375.5-275.5
		C1419.6,729.5,1464.1,751.6,1592.7,759.4z"/>
	<polygon class="st3" points="1592.7,1279.6 1592.7,1622.8 832.9,1622.8 816.8,1279.6 	"/>
	<path class="st4" d="M1592.7,1622.8l-0.1,1152l0.1,25.4l-20.6-0.3c-238-1-434.6,28.4-631.6,73.6l-46.2,13.3l-5.1-63.2l-56.3-1200.8
		H1592.7z"/>
</g>
<g>
	<path class="st1" d="M1835,624.8c0,0,246.7,34.9,375.5,275.5c112.4,264.5,156.7,325.3,156.7,325.3l-2.5,54h-775.9V790.7v-31.3
		C1717.4,751.6,1761.9,729.5,1835,624.8z"/>
	<polygon class="st3" points="2364.7,1279.6 2348.6,1622.8 1588.8,1622.8 1588.8,1279.6 	"/>
	<path class="st4" d="M2348.6,1622.8l-56.3,1200.8l-5.1,63.2l-46.2-13.3c-197-45.2-393.6-74.6-631.6-73.6l-20.6,0.3l0.1-25.4
		l-0.1-1152H2348.6z"/>
</g>
<g>
	<g>
		<path class="st5" d="M1859.2,1437.8h-30.5v-13.4c0-3.9-0.3-6.3-1-7.3s-2.1-1.5-4.3-1.5c-2.5,0-4.1,0.6-4.8,1.8
			c-0.7,1.2-1,3.7-1,7.6v35.9c0,3.8,0.3,6.2,1,7.3c0.7,1.1,2.2,1.7,4.6,1.7c2.3,0,3.8-0.6,4.5-1.7s1.1-3.8,1.1-8.1v-9.7h30.5v3
			c0,8-0.9,13.7-2.6,17s-5.5,6.3-11.4,8.8s-13.1,3.8-21.7,3.8c-8.9,0-16.3-1.1-22.1-3.2c-5.8-2.1-9.6-5.1-11.5-8.8
			c-1.9-3.8-2.8-9.4-2.8-17v-22.6c0-5.6,0.3-9.7,0.9-12.5s2.3-5.5,5.2-8c2.9-2.6,6.9-4.6,12-6.1s11-2.2,17.6-2.2
			c9,0,16.4,1.1,22.2,3.4c5.8,2.3,9.7,5.1,11.5,8.6c1.8,3.4,2.8,8.7,2.8,15.9v7.3L1859.2,1437.8L1859.2,1437.8z"/>
		<path class="st5" d="M1936.3,1404.2l-22.2,49.3v28h-28.3v-28l-21.4-49.3h28c4.4,15.1,6.8,25.2,7.4,30.4c1.7-8.2,4.5-18.4,8.5-30.4
			H1936.3z"/>
		<path class="st5" d="M2013.9,1437.8h-30.5v-13.4c0-3.9-0.3-6.3-1-7.3s-2.1-1.5-4.3-1.5c-2.5,0-4.1,0.6-4.8,1.8
			c-0.7,1.2-1,3.7-1,7.6v35.9c0,3.8,0.3,6.2,1,7.3c0.7,1.1,2.2,1.7,4.6,1.7c2.3,0,3.8-0.6,4.5-1.7s1.1-3.8,1.1-8.1v-9.7h30.5v3
			c0,8-0.9,13.7-2.6,17s-5.5,6.3-11.4,8.8s-13.1,3.8-21.7,3.8c-8.9,0-16.3-1.1-22.1-3.2c-5.8-2.1-9.6-5.1-11.5-8.8s-2.8-9.4-2.8-17
			v-22.6c0-5.6,0.3-9.7,0.9-12.5s2.3-5.5,5.2-8c2.9-2.6,6.9-4.6,12-6.1s11-2.2,17.6-2.2c9,0,16.4,1.1,22.2,3.4
			c5.8,2.3,9.7,5.1,11.5,8.6c1.8,3.4,2.8,8.7,2.8,15.9v7.3L2013.9,1437.8L2013.9,1437.8z"/>
		<path class="st5" d="M2056.5,1404.2v61.8h18.5v15.5h-49v-77.2h30.5V1404.2z"/>
		<path class="st5" d="M2083.6,1404.2h50.9v15.5h-20.4v14.6h19.1v14.7h-19.1v17h22.4v15.5h-52.9V1404.2z"/>
		<path class="st5" d="M2211.1,1427.6h-28.3v-5.7c0-2.7-0.4-4.4-1.1-5.1c-0.7-0.7-1.9-1.1-3.6-1.1c-1.8,0-3.2,0.5-4.2,1.5
			c-0.9,1-1.4,2.5-1.4,4.5c0,2.6,0.5,4.5,1.6,5.8c1,1.3,3.9,2.9,8.6,4.7c13.6,5.3,22.1,9.7,25.7,13.1c3.5,3.4,5.3,8.9,5.3,16.5
			c0,5.5-1,9.6-2.9,12.2c-2,2.6-5.7,4.8-11.3,6.6c-5.6,1.8-12.1,2.6-19.6,2.6c-8.2,0-15.1-1-20.9-3.1c-5.8-2-9.6-4.6-11.3-7.8
			c-1.8-3.1-2.7-7.6-2.7-13.4v-5.1h28.3v9.4c0,2.9,0.4,4.8,1.2,5.6c0.8,0.8,2.2,1.2,4.2,1.2s3.5-0.5,4.5-1.6c1-1,1.5-2.6,1.5-4.7
			c0-4.5-0.9-7.5-2.8-8.9c-1.9-1.4-6.7-3.7-14.3-7s-12.6-5.7-15.1-7.2s-4.5-3.6-6.1-6.2s-2.4-6-2.4-10.1c0-5.9,1.1-10.2,3.4-13
			c2.3-2.7,6-4.9,11.1-6.4s11.3-2.3,18.5-2.3c7.9,0,14.7,0.8,20.2,2.5c5.6,1.7,9.3,3.8,11.1,6.4s2.7,6.9,2.7,13v3.1H2211.1z"/>
	</g>
	<g>
		<path class="st5" d="M1813.9,1524.9c-2.4-0.9-4.2-2.1-5.3-3.7c-1.2-1.6-1.7-3.5-1.7-5.6c0-2.5,0.7-4.5,2.2-6.1s3.4-2.8,5.8-3.5
			s5-1.1,7.9-1.1c2.2,0,4.2,0.2,6,0.5s3.6,0.8,5.3,1.4l-2.1,2.2c-2.8-1-5.8-1.6-8.9-1.6c-3.7,0-6.5,0.7-8.2,2.2
			c-1.8,1.4-2.6,3.4-2.6,5.9c0,2.6,0.9,4.6,2.8,6c1.9,1.5,4.6,2.2,8.2,2.2c1.8,0,3.5-0.1,4.9-0.4c1.5-0.3,2.9-0.7,4.4-1.2l2,2.1
			c-1.9,0.7-3.7,1.2-5.5,1.5s-3.8,0.5-6,0.5C1819.3,1526.2,1816.3,1525.8,1813.9,1524.9z"/>
		<path class="st5" d="M1866.3,1505.3v0.2l-12.8,12.3v8h-4.9v-8.1l-12.5-12.2v-0.2h5.4l9.7,9.8l10.1-9.8L1866.3,1505.3
			L1866.3,1505.3z"/>
		<path class="st5" d="M1874.3,1524.9c-2.4-0.9-4.2-2.1-5.3-3.7c-1.2-1.6-1.7-3.5-1.7-5.6c0-2.5,0.7-4.5,2.2-6.1s3.4-2.8,5.8-3.5
			s5-1.1,7.9-1.1c2.2,0,4.2,0.2,6,0.5s3.6,0.8,5.3,1.4l-2.1,2.2c-2.8-1-5.8-1.6-8.9-1.6c-3.7,0-6.5,0.7-8.2,2.2
			c-1.8,1.4-2.6,3.4-2.6,5.9c0,2.6,0.9,4.6,2.8,6c1.9,1.5,4.6,2.2,8.2,2.2c1.8,0,3.5-0.1,4.9-0.4c1.5-0.3,2.9-0.7,4.4-1.2l2,2.1
			c-1.9,0.7-3.7,1.2-5.5,1.5s-3.8,0.5-6,0.5C1879.6,1526.2,1876.7,1525.8,1874.3,1524.9z"/>
		<path class="st5" d="M1904.8,1523.3h17v2.5h-22v-20.5h4.9L1904.8,1523.3L1904.8,1523.3z"/>
		<path class="st5" d="M1927.2,1525.9v-20.5h4.9v20.5H1927.2z"/>
		<path class="st5" d="M1969.4,1505.3v20.5h-5.5l-15.3-13.3l-0.7-0.6c-0.1-0.1-0.3-0.3-0.7-0.6c-0.4-0.3-0.7-0.6-1-0.9
			s-0.5-0.5-0.7-0.8v16.2h-4.7v-20.5h5.2l15.7,13.6c0.1,0.1,0.4,0.4,0.9,0.8s0.9,0.7,1.2,1.1c0.3,0.3,0.6,0.6,0.8,0.9v-16.4
			L1969.4,1505.3L1969.4,1505.3z"/>
		<path class="st5" d="M2005.1,1514.5v10c-2.1,0.6-4.1,1-5.9,1.3c-1.9,0.3-4,0.4-6.5,0.4c-3.8,0-7-0.5-9.4-1.4
			c-2.5-0.9-4.3-2.2-5.4-3.7c-1.1-1.6-1.7-3.4-1.7-5.5c0-2.4,0.7-4.5,2.2-6.1s3.5-2.8,6-3.5s5.3-1.1,8.3-1.1c2.2,0,4.3,0.2,6.2,0.5
			c1.9,0.3,3.7,0.8,5.4,1.4l-2.1,2.2c-1.3-0.5-2.6-0.8-4.1-1.1c-1.5-0.3-3.1-0.4-5-0.4c-4,0-7,0.7-8.9,2.1s-2.8,3.4-2.8,5.9
			c0,2.6,0.9,4.6,2.7,6.1c1.8,1.4,4.7,2.1,8.7,2.1c2.5,0,5-0.3,7.4-0.8v-6h-8.9l0.5-2.5L2005.1,1514.5L2005.1,1514.5z"/>
		<path class="st5" d="M2021,1524.4l2.6-2.2c1,0.5,2.1,0.8,3.1,1.1c1.1,0.2,2.2,0.4,3.6,0.4c1.9,0,3.4-0.3,4.4-1s1.5-1.7,1.5-2.9
			v-14.3h4.9v14.4c0,1.5-0.5,2.8-1.4,3.8s-2.2,1.7-3.8,2.1s-3.4,0.6-5.3,0.6C2026.9,1526.2,2023.7,1525.6,2021,1524.4z"/>
		<path class="st5" d="M2054.4,1523.4h17v2.5h-22v-20.5h21.7v2.5h-16.8v6.4h14.7l-0.5,2.4h-14.1V1523.4L2054.4,1523.4z"/>
		<path class="st5" d="M2104.2,1525.7v0.2h-5.7l-10-8h-5.1v8h-4.9v-20.5h11.3c2.7,0,5,0.3,6.9,0.8s3.3,1.2,4.2,2.1s1.4,2,1.4,3.2
			c0,1-0.3,1.9-0.9,2.7c-0.6,0.8-1.6,1.5-2.8,2.1s-2.8,1-4.7,1.3L2104.2,1525.7z M2083.4,1515.4h5.6c2.7,0,4.7-0.3,6.1-1
			c1.4-0.7,2.1-1.7,2.1-2.9c0-1.2-0.6-2.1-1.9-2.8c-1.3-0.6-3.1-0.9-5.6-0.9h-6.3L2083.4,1515.4L2083.4,1515.4z"/>
		<path class="st5" d="M2111.6,1525.6c-2.1-0.4-4-1-5.6-1.7l2.4-2.1c1.4,0.7,3,1.1,4.8,1.5c1.8,0.3,3.5,0.5,5.1,0.5
			c2.6,0,4.5-0.3,5.9-0.8c1.3-0.5,2-1.4,2-2.5c0-0.7-0.2-1.2-0.7-1.6s-1.3-0.8-2.4-1.2c-1.1-0.3-2.7-0.7-4.7-1.2l-0.9-0.2
			c-2.2-0.5-4.1-0.9-5.5-1.4s-2.5-1-3.4-1.8c-0.9-0.7-1.3-1.7-1.3-2.8c0-1.2,0.5-2.2,1.6-3s2.5-1.4,4.3-1.8s3.7-0.6,5.7-0.6
			c2.1,0,4.2,0.2,6.1,0.5c1.9,0.3,3.8,0.8,5.6,1.6l-2.2,2.1c-1.6-0.6-3.1-1-4.6-1.3s-3.1-0.4-4.9-0.4c-1.9,0-3.5,0.2-4.7,0.7
			c-1.3,0.5-1.9,1.2-1.9,2.2c0,0.5,0.2,0.9,0.6,1.3c0.4,0.4,1.1,0.7,2.1,1.1c1,0.3,2.4,0.7,4.3,1.1l0.9,0.2c2.4,0.5,4.3,0.9,5.7,1.4
			c1.4,0.4,2.7,1.1,3.7,1.9s1.6,1.9,1.6,3.1c0,1.3-0.5,2.4-1.6,3.2c-1,0.9-2.5,1.5-4.4,2s-4.2,0.7-6.9,0.7
			C2116,1526.2,2113.7,1526,2111.6,1525.6z"/>
		<path class="st5" d="M2143,1523.4h17v2.5h-22v-20.5h21.7v2.5h-16.8v6.4h14.7l-0.5,2.4H2143L2143,1523.4L2143,1523.4z"/>
		<path class="st5" d="M2193.9,1505.3v0.2l-12.8,12.3v8h-4.9v-8.1l-12.5-12.2v-0.2h5.4l9.7,9.8l10.1-9.8L2193.9,1505.3
			L2193.9,1505.3z"/>
	</g>
</g>
<g class="st6">
	<path d="M1511.8,2897.6v-43.5h29.4v5.1h-23.6v13.5h20.4v5.1h-20.4v19.8L1511.8,2897.6L1511.8,2897.6z"/>
	<path d="M1548.7,2897.6v-43.5h19.3c3.9,0-7.2,0.4-5.2,1.2s3.6,2.2,4.8,4.1c1.2,2,1.8,4.2,1.8,6.6c0,3.1-1,5.7-3,7.8s-5.1,3.5-9.3,4
		c1.5,0.7,2.7,1.5,3.5,2.2c1.7,1.5,3.3,3.5,4.8,5.8l7.6,11.8h-7.2l-5.8-9.1c-1.7-2.6-3.1-4.6-4.2-6s11.9-2.4,11.1-2.9
		c-0.9-0.6-1.7-0.9-2.6-1.2c-0.7-0.1-1.7-0.2-3.2-0.2h-6.7v19.3L1548.7,2897.6L1548.7,2897.6z M1554.5,2873.3h12.4
		c2.6,0-9.3-0.3-7.8-0.8s2.6-1.4,3.4-2.6c0.8-1.2,1.2-2.5,1.2-3.9c0-2.1-0.7-3.8-2.2-5.1s-3.9-2-7.1-2h0.2L1554.5,2873.3
		L1554.5,2873.3z"/>
	<path d="M1576.8,2876.4c0-7.2,1.9-12.9,5.8-17s8.9-6.1,15-6.1c4,0,7.6,1,10.9,2.9c3.2,1.9,5.7,4.6,7.4,8
		c1.7,3.4,16.5,7.3,16.5,11.7s-14.9,8.4-16.7,11.8s-4.3,6.1-7.6,7.9s-6.8,2.7-10.6,2.7c-4.1,0-7.8-1-11-3s-5.7-4.7-7.3-8.1
		C1577.6,2883.8,1576.8,2880.2,1576.8,2876.4z M1582.7,2876.5c0,5.2,1.4,9.4,4.2,12.4c2.8,3,6.4,4.5,10.6,4.5
		c4.3,0,7.9-1.5,10.7-4.6c2.8-3,4.2-7.4,4.2-13c0-3.5-0.6-6.6-1.8-9.3c-1.2-2.6-2.9-4.7-5.3-6.1c-2.3-1.5-4.9-2.2-7.8-2.2
		c-4.1,0-7.6,1.4-10.5,4.2C1584.2,2865.3,1582.7,2869.9,1582.7,2876.5z"/>
	<path d="M1639.8,2897.6v-43.5h5.9l22.9,34.2v-34.2h5.5v43.5h-5.9l-22.9-34.2v34.2H1639.8z"/>
	<path d="M1694.8,2897.6v-38.4h-14.3v-5.1h34.5v5.1h-14.4v38.4H1694.8z"/>
	<path d="M1736.7,2897.6v-43.5h16.4c2.9,0,5.1,0.1,6.6,0.4c2.1,0.4,3.9,1,5.4,2c1.4,1,2.6,2.4,3.5,4.2s1.3,3.8,1.3,5.9
		c0,3.7-1.2,6.8-3.5,9.4c-2.4,2.6-6.6,3.8-12.8,3.8h-11.2v17.7h-5.7V2897.6z M1742.4,2874.8h11.3c3.7,0,6.4-0.7,7.9-2.1
		c1.6-1.4,2.3-3.3,2.3-5.8c0-1.8-0.5-3.4-1.4-4.7s-2.1-2.2-3.6-2.6c-1-0.3-2.8-0.4-5.4-0.4h-11.1L1742.4,2874.8L1742.4,2874.8z"/>
	<path d="M1767.9,2897.6l16.7-43.5h6.2l17.8,43.5h-6.6l-5.1-13.2h-18.2l-4.8,13.2H1767.9z M1780.5,2879.7h14.8l-4.5-12.1
		c-1.4-3.7-2.4-6.7-3.1-9c-0.6,2.8-1.3,5.6-2.3,8.3L1780.5,2879.7z"/>
	<path d="M1813.2,2897.6v-43.5h5.9l22.9,34.2v-34.2h5.5v43.5h-5.9l-22.9-34.2v34.2H1813.2z"/>
	<path d="M1857.3,2897.6v-43.5h31.5v5.1h-25.7v13.3h24.1v5.1h-24.1v14.8h26.7v5.1L1857.3,2897.6L1857.3,2897.6z"/>
	<path d="M1897.5,2897.6v-43.5h5.8v38.4h21.4v5.1H1897.5z"/>
</g>
<g class="st6">
	<path d="M2516.6,3030.2l5.4-0.5c0.3,2.2,0.9,4,1.8,5.4c0.9,1.4,2.4,2.5,4.4,3.4s4.2,1.3,6.7,1.3c2.2,0,4.1-0.3,5.8-1
		s2.9-1.5,3.8-2.7c0.8-1.1,1.2-2.4,1.2-3.7c0-1.4-0.4-2.6-1.2-3.6s-2.1-1.9-3.9-2.6c-1.2-0.5-3.8-1.2-7.7-2.1c-4-1-6.8-1.9-8.4-2.7
		c-2.1-1.1-3.6-2.4-4.6-4.1c-1-1.6-1.5-3.4-1.5-5.4c0-2.2,0.6-4.2,1.9-6.2c1.2-1.9,3.1-3.4,5.5-4.3c2.4-1,5.1-1.5,8-1.5
		c3.2,0,6.1,0.5,8.5,1.6s4.4,2.6,5.7,4.6s2,4.3,2.1,6.9l-5.5,0.4c-0.3-2.8-1.3-4.8-3-6.2s-4.2-2.1-7.6-2.1c-3.5,0-6,0.6-7.6,1.9
		c-1.6,1.3-2.4,2.8-2.4,4.6c0,1.6,0.6,2.8,1.7,3.9c1.1,1,4,2,8.7,3.1s7.9,2,9.6,2.8c2.5,1.2,4.4,2.6,5.6,4.4s1.8,3.9,1.8,6.2
		s-0.7,4.5-2,6.5s-3.2,3.6-5.7,4.8c-2.5,1.1-5.3,1.7-8.4,1.7c-3.9,0-7.2-0.6-9.9-1.7c-2.7-1.1-4.8-2.9-6.3-5.2
		S2516.6,3033.1,2516.6,3030.2z"/>
	<path d="M2560.1,3044.2v-43.5h5.8v43.5H2560.1z"/>
	<path d="M2576,3044.2v-43.5h15c3.4,0,6,0.2,7.7,0.6c2.5,0.6,4.6,1.6,6.4,3.1c2.3,1.9,4,4.4,5.2,7.4c1.1,3,1.7,6.5,1.7,10.3
		c0,3.3-0.4,6.2-1.2,8.8s-1.8,4.7-3,6.3c-1.2,1.7-2.5,3-4,3.9c-1.4,1-3.2,1.7-5.2,2.2s-4.4,0.7-7,0.7H2576V3044.2z M2581.7,3039.1
		h9.3c2.9,0,5.1-0.3,6.8-0.8s2.9-1.3,3.9-2.3c1.4-1.4,2.4-3.2,3.2-5.5s1.1-5.1,1.1-8.4c0-4.6-0.7-8.1-2.2-10.5s-3.3-4.1-5.4-4.9
		c-1.5-0.6-4-0.9-7.5-0.9h-9.1v33.3H2581.7z"/>
	<path d="M2620,3044.2v-43.5h31.5v5.1h-25.7v13.3h24.1v5.1h-24.1v14.8h26.7v5.1L2620,3044.2L2620,3044.2z"/>
	<path d="M2678.3,3044.2v-43.5h5.8v43.5H2678.3z"/>
	<path d="M2694.2,3044.2v-43.5h5.9l22.9,34.2v-34.2h5.5v43.5h-5.9l-22.9-34.2v34.2H2694.2z"/>
	<path d="M2736.2,3030.2l5.4-0.5c0.3,2.2,0.9,4,1.8,5.4c0.9,1.4,2.4,2.5,4.4,3.4s4.2,1.3,6.7,1.3c2.2,0,4.1-0.3,5.8-1
		s2.9-1.5,3.8-2.7s1.2-2.4,1.2-3.7c0-1.4-0.4-2.6-1.2-3.6s-2.1-1.9-3.9-2.6c-1.2-0.5-3.8-1.2-7.7-2.1c-4-1-6.8-1.9-8.4-2.7
		c-2.1-1.1-3.6-2.4-4.6-4.1s-1.5-3.4-1.5-5.4c0-2.2,0.6-4.2,1.9-6.2c1.2-1.9,3.1-3.4,5.5-4.3s5.1-1.5,8-1.5c3.2,0,6.1,0.5,8.5,1.6
		s4.4,2.6,5.7,4.6s2,4.3,2.1,6.9l-5.5,0.4c-0.3-2.8-1.3-4.8-3-6.2s-4.2-2.1-7.6-2.1c-3.5,0-6,0.6-7.6,1.9c-1.6,1.3-2.4,2.8-2.4,4.6
		c0,1.6,0.6,2.8,1.7,3.9c1.1,1,4,2,8.7,3.1s7.9,2,9.6,2.8c2.5,1.2,4.4,2.6,5.6,4.4s1.8,3.9,1.8,6.2s-0.7,4.5-2,6.5s-3.2,3.6-5.7,4.8
		c-2.5,1.1-5.3,1.7-8.4,1.7c-3.9,0-7.2-0.6-9.9-1.7c-2.7-1.1-4.8-2.9-6.3-5.2C2737,3035.7,2736.2,3033.1,2736.2,3030.2z"/>
	<path d="M2779.6,3044.2v-43.5h5.8v43.5H2779.6z"/>
	<path d="M2795.6,3044.2v-43.5h15c3.4,0,6,0.2,7.7,0.6c2.5,0.6,4.6,1.6,6.4,3.1c2.3,1.9,4,4.4,5.2,7.4c1.1,3,1.7,6.5,1.7,10.3
		c0,3.3-0.4,6.2-1.2,8.8s-1.8,4.7-3,6.3c-1.2,1.7-2.5,3-4,3.9c-1.4,1-3.2,1.7-5.2,2.2s-4.4,0.7-7,0.7h-15.6V3044.2z M2801.3,3039.1
		h9.3c2.9,0,5.1-0.3,6.8-0.8s2.9-1.3,3.9-2.3c1.4-1.4,2.4-3.2,3.2-5.5s1.1-5.1,1.1-8.4c0-4.6-0.7-8.1-2.2-10.5s-3.3-4.1-5.4-4.9
		c-1.5-0.6-4-0.9-7.5-0.9h-9.1v33.3H2801.3z"/>
	<path d="M2839.6,3044.2v-43.5h31.5v5.1h-25.7v13.3h24.1v5.1h-24.1v14.8h26.7v5.1L2839.6,3044.2L2839.6,3044.2z"/>
</g>
<g class="st6">
	<path d="M1754.7,155.7l5.8,1.5c-1.2,4.7-3.4,8.3-6.5,10.8s-7,3.7-11.5,3.7c-4.7,0-8.5-1-11.4-2.9s-5.2-4.7-6.7-8.3
		s-2.3-7.5-2.3-11.7c0-4.5,0.9-8.5,2.6-11.9s4.2-5.9,7.4-7.7c3.2-1.8,6.7-2.6,10.6-2.6c4.4,0,8,1.1,11,3.3c3,2.2,5,5.3,6.2,9.4
		l-5.7,1.3c-1-3.2-2.5-5.5-4.4-6.9s-4.3-2.2-7.2-2.2c-3.3,0-6.1,0.8-8.4,2.4c-2.2,1.6-3.8,3.8-4.7,6.5s-1.4,5.5-1.4,8.4
		c0,3.7,0.5,6.9,1.6,9.7s2.8,4.8,5,6.2c2.3,1.4,4.7,2,7.4,2c3.2,0,6-0.9,8.2-2.8C1752.4,162.2,1753.9,159.4,1754.7,155.7z"/>
	<path d="M1765.8,149.8c0-7.2,1.9-12.9,5.8-17s8.9-6.1,15-6.1c4,0,7.6,1,10.9,2.9c3.2,1.9,5.7,4.6,7.4,8c1.7,3.4,2.5,7.3,2.5,11.7
		s-0.9,8.4-2.7,11.8s-4.3,6.1-7.6,7.9s-6.8,2.7-10.6,2.7c-4.1,0-7.8-1-11-3s-5.7-4.7-7.3-8.1
		C1766.6,157.2,1765.8,153.6,1765.8,149.8z M1771.8,149.9c0,5.2,1.4,9.4,4.2,12.4c2.8,3,6.4,4.5,10.6,4.5c4.3,0,7.9-1.5,10.7-4.6
		c2.8-3,4.2-7.4,4.2-13c0-3.5-0.6-6.6-1.8-9.3c-1.2-2.6-2.9-4.7-5.3-6.1c-2.3-1.5-4.9-2.2-7.8-2.2c-4.1,0-7.6,1.4-10.5,4.2
		C1773.2,138.7,1771.8,143.3,1771.8,149.9z"/>
	<path d="M1814.6,171v-43.5h5.8v38.4h21.4v5.1H1814.6z"/>
	<path d="M1848.4,171v-43.5h5.8v38.4h21.4v5.1H1848.4z"/>
	<path d="M1877.7,171l16.7-43.5h6.2l17.8,43.5h-6.6l-5.1-13.2h-18.2l-4.8,13.2H1877.7z M1890.3,153.1h14.8l-4.5-12.1
		c-1.4-3.7-2.4-6.7-3.1-9c-0.6,2.8-1.3,5.6-2.3,8.3L1890.3,153.1z"/>
	<path d="M1923.1,171v-43.5h19.3c3.9,0,6.8,0.4,8.8,1.2s3.6,2.2,4.8,4.1c1.2,2,1.8,4.2,1.8,6.6c0,3.1-1,5.7-3,7.8s-5.1,3.5-9.3,4
		c1.5,0.7,2.7,1.5,3.5,2.2c1.7,1.5,3.3,3.5,4.8,5.8l7.6,11.8h-7.2l-5.8-9.1c-1.7-2.6-3.1-4.6-4.2-6s-2.1-2.4-2.9-2.9
		c-0.9-0.6-1.7-0.9-2.6-1.2c-0.7-0.1-1.7-0.2-3.2-0.2h-6.7V171H1923.1z M1928.9,146.7h12.4c2.6,0,4.7-0.3,6.2-0.8s2.6-1.4,3.4-2.6
		c0.8-1.2,1.2-2.5,1.2-3.9c0-2.1-0.7-3.8-2.2-5.1s-3.9-2-7.1-2H1929L1928.9,146.7L1928.9,146.7z"/>
</g>
<g class="st6">
	<path d="M3810.2,292.7v-43.5h16.3c3.3,0,6,0.4,8,1.3c2,0.9,3.6,2.2,4.7,4.1c1.1,1.8,1.7,3.7,1.7,5.7c0,1.9-0.5,3.6-1.5,5.3
		c-1,1.6-2.5,3-4.6,4c2.6,0.8,4.7,2.1,6.1,3.9c1.4,1.9,2.1,4.1,2.1,6.6c0,2-0.4,3.9-1.3,5.7c-0.9,1.8-1.9,3.1-3.2,4.1
		s-2.9,1.7-4.8,2.2c-1.9,0.5-4.2,0.7-7,0.7h-16.5V292.7z M3816,267.5h9.4c2.6,0,4.4-0.2,5.5-0.5c1.5-0.4,2.6-1.2,3.3-2.2
		s1.1-2.3,1.1-3.8c0-1.4-0.3-2.7-1-3.8c-0.7-1.1-1.7-1.8-3-2.3c-1.3-0.4-3.5-0.6-6.6-0.6h-8.7V267.5z M3816,287.6h10.8
		c1.9,0,3.2-0.1,3.9-0.2c1.3-0.2,2.4-0.6,3.3-1.2c0.9-0.6,1.6-1.4,2.2-2.4s0.9-2.3,0.9-3.7c0-1.6-0.4-3-1.2-4.2s-2-2-3.5-2.5
		s-3.6-0.7-6.4-0.7h-10V287.6z"/>
	<path d="M3846.2,292.7l16.7-43.5h6.2l17.8,43.5h-6.6l-5.1-13.2H3857l-4.8,13.2H3846.2z M3858.8,274.8h14.8l-4.5-12.1
		c-1.4-3.7-2.4-6.7-3.1-9c-0.6,2.8-1.3,5.6-2.3,8.3L3858.8,274.8z"/>
	<path d="M3922.6,277.4l5.8,1.5c-1.2,4.7-3.4,8.3-6.5,10.8s-7,3.7-11.5,3.7c-4.7,0-8.5-1-11.4-2.9s-5.2-4.7-6.7-8.3
		c-1.5-3.6-2.3-7.5-2.3-11.7c0-4.5,0.9-8.5,2.6-11.9c1.7-3.4,4.2-5.9,7.4-7.7s6.7-2.6,10.6-2.6c4.4,0,8,1.1,11,3.3s5,5.3,6.2,9.4
		l-5.7,1.3c-1-3.2-2.5-5.5-4.4-6.9s-4.3-2.2-7.2-2.2c-3.3,0-6.1,0.8-8.4,2.4c-2.2,1.6-3.8,3.8-4.7,6.5s-1.4,5.5-1.4,8.4
		c0,3.7,0.5,6.9,1.6,9.7s2.8,4.8,5,6.2c2.3,1.4,4.7,2,7.4,2c3.2,0,6-0.9,8.2-2.8C3920.3,283.9,3921.8,281.1,3922.6,277.4z"/>
	<path d="M3935.2,292.7v-43.5h5.8v21.6l21.6-21.6h7.8l-18.3,17.6l19.1,25.9h-7.6l-15.5-22l-7.1,6.9v15.1H3935.2z"/>
	<path d="M3990.9,278.7l5.4-0.5c0.3,2.2,0.9,4,1.8,5.4s2.4,2.5,4.4,3.4s4.2,1.3,6.7,1.3c2.2,0,4.1-0.3,5.8-1s2.9-1.5,3.8-2.7
		c0.8-1.1,1.2-2.4,1.2-3.7c0-1.4-0.4-2.6-1.2-3.6s-2.1-1.9-3.9-2.6c-1.2-0.5-3.8-1.2-7.7-2.1s-6.8-1.9-8.4-2.7
		c-2.1-1.1-3.6-2.4-4.6-4.1s-1.5-3.4-1.5-5.4c0-2.2,0.6-4.2,1.9-6.2c1.2-1.9,3.1-3.4,5.5-4.3c2.4-1,5.1-1.5,8-1.5
		c3.2,0,6.1,0.5,8.5,1.6c2.5,1,4.4,2.6,5.7,4.6s2,4.3,2.1,6.9l-5.5,0.4c-0.3-2.8-1.3-4.8-3-6.2c-1.7-1.4-4.2-2.1-7.6-2.1
		c-3.5,0-6,0.6-7.6,1.9c-1.6,1.3-2.4,2.8-2.4,4.6c0,1.6,0.6,2.8,1.7,3.9c1.1,1,4,2,8.7,3.1s7.9,2,9.6,2.8c2.5,1.2,4.4,2.6,5.6,4.4
		s1.8,3.9,1.8,6.2c0,2.3-0.7,4.5-2,6.5s-3.2,3.6-5.7,4.8c-2.5,1.1-5.3,1.7-8.4,1.7c-3.9,0-7.2-0.6-9.9-1.7s-4.8-2.9-6.3-5.2
		C3991.8,284.2,3991,281.6,3990.9,278.7z"/>
	<path d="M4034.4,292.7v-43.5h5.8v43.5H4034.4z"/>
	<path d="M4050.3,292.7v-43.5h15c3.4,0,6,0.2,7.7,0.6c2.5,0.6,4.6,1.6,6.4,3.1c2.3,1.9,4,4.4,5.2,7.4c1.1,3,1.7,6.5,1.7,10.3
		c0,3.3-0.4,6.2-1.2,8.8c-0.8,2.6-1.8,4.7-3,6.3c-1.2,1.7-2.5,3-4,3.9c-1.4,1-3.2,1.7-5.2,2.2s-4.4,0.7-7,0.7h-15.6V292.7z
		 M4056.1,287.6h9.3c2.9,0,5.1-0.3,6.8-0.8c1.6-0.5,2.9-1.3,3.9-2.3c1.4-1.4,2.4-3.2,3.2-5.5s1.1-5.1,1.1-8.4c0-4.6-0.7-8-2.2-10.5
		c-1.5-2.4-3.3-4.1-5.4-4.9c-1.5-0.6-4-0.9-7.5-0.9h-9.1v33.3H4056.1z"/>
	<path d="M4094.4,292.7v-43.5h31.5v5.1h-25.7v13.3h24.1v5.1h-24.1v14.8h26.7v5.1h-32.5V292.7z"/>
</g>
<g class="st6">
	<path d="M787.5,4822l5.4-0.5c0.3,2.2,0.9,4,1.8,5.4c0.9,1.4,2.4,2.5,4.4,3.4s4.2,1.3,6.7,1.3c2.2,0,4.1-0.3,5.8-1s2.9-1.5,3.8-2.7
		c0.8-1.1,1.2-2.4,1.2-3.7c0-1.4-0.4-2.6-1.2-3.6s-2.1-1.9-3.9-2.6c-1.2-0.5-3.8-1.2-7.7-2.1c-4-1-6.8-1.9-8.4-2.7
		c-2.1-1.1-3.6-2.4-4.6-4.1c-1-1.6-1.5-3.4-1.5-5.4c0-2.2,0.6-4.2,1.9-6.2c1.2-1.9,3.1-3.4,5.5-4.3c2.4-1,5.1-1.5,8-1.5
		c3.2,0,6.1,0.5,8.5,1.6s4.4,2.6,5.7,4.6s2,4.3,2.1,6.9l-5.5,0.4c-0.3-2.8-1.3-4.8-3-6.2c-1.7-1.4-4.2-2.1-7.6-2.1
		c-3.5,0-6,0.6-7.6,1.9s-2.4,2.8-2.4,4.6c0,1.6,0.6,2.8,1.7,3.9c1.1,1,4,2,8.7,3.1s7.9,2,9.6,2.8c2.5,1.2,4.4,2.6,5.6,4.4
		s1.8,3.9,1.8,6.2c0,2.3-0.7,4.5-2,6.5s-3.2,3.6-5.7,4.8s-5.3,1.7-8.4,1.7c-3.9,0-7.2-0.6-9.9-1.7s-4.8-2.9-6.3-5.2
		C788.4,4827.5,787.6,4824.9,787.5,4822z"/>
	<path d="M829.8,4836v-43.5h5.8v38.4H857v5.1H829.8z"/>
	<path d="M863.9,4836v-43.5h31.5v5.1h-25.7v13.3h24.1v5.1h-24.1v14.8h26.7v5.1h-32.5V4836z"/>
	<path d="M904.5,4836v-43.5H936v5.1h-25.7v13.3h24.1v5.1h-24.1v14.8H937v5.1h-32.5V4836z"/>
	<path d="M957.3,4836l-16.9-43.5h6.2l11.3,31.6c0.9,2.5,1.7,4.9,2.3,7.1c0.7-2.4,1.5-4.8,2.3-7.1l11.8-31.6h5.9l-17,43.5H957.3z"/>
	<path d="M985.6,4836v-43.5h31.5v5.1h-25.7v13.3h24.1v5.1h-24.1v14.8h26.7v5.1h-32.5V4836z"/>
</g>
<g class="st6">
	<path d="M2425.6,4822l5.4-0.5c0.3,2.2,0.9,4,1.8,5.4s2.4,2.5,4.4,3.4s4.2,1.3,6.7,1.3c2.2,0,4.1-0.3,5.8-1s2.9-1.5,3.8-2.7
		c0.8-1.1,1.2-2.4,1.2-3.7c0-1.4-0.4-2.6-1.2-3.6s-2.1-1.9-3.9-2.6c-1.2-0.5-3.8-1.2-7.7-2.1c-4-1-6.8-1.9-8.4-2.7
		c-2.1-1.1-3.6-2.4-4.6-4.1c-1-1.6-1.5-3.4-1.5-5.4c0-2.2,0.6-4.2,1.9-6.2c1.2-1.9,3.1-3.4,5.5-4.3c2.4-1,5.1-1.5,8-1.5
		c3.2,0,6.1,0.5,8.5,1.6s4.4,2.6,5.7,4.6s2,4.3,2.1,6.9l-5.5,0.4c-0.3-2.8-1.3-4.8-3-6.2c-1.7-1.4-4.2-2.1-7.6-2.1
		c-3.5,0-6,0.6-7.6,1.9s-2.4,2.8-2.4,4.6c0,1.6,0.6,2.8,1.7,3.9c1.1,1,4,2,8.7,3.1s7.9,2,9.6,2.8c2.5,1.2,4.4,2.6,5.6,4.4
		s1.8,3.9,1.8,6.2c0,2.3-0.7,4.5-2,6.5s-3.2,3.6-5.7,4.8c-2.5,1.1-5.3,1.7-8.4,1.7c-3.9,0-7.2-0.6-9.9-1.7s-4.8-2.9-6.3-5.2
		C2426.5,4827.5,2425.7,4824.9,2425.6,4822z"/>
	<path d="M2467.9,4836v-43.5h5.8v38.4h21.4v5.1H2467.9z"/>
	<path d="M2502.1,4836v-43.5h31.5v5.1h-25.7v13.3h24.1v5.1h-24.1v14.8h26.7v5.1h-32.5V4836z"/>
	<path d="M2542.6,4836v-43.5h31.5v5.1h-25.7v13.3h24.1v5.1h-24.1v14.8h26.7v5.1h-32.5V4836z"/>
	<path d="M2595.5,4836l-16.9-43.5h6.2l11.3,31.6c0.9,2.5,1.7,4.9,2.3,7.1c0.7-2.4,1.5-4.8,2.3-7.1l11.8-31.6h5.9l-17,43.5H2595.5z"
		/>
	<path d="M2623.7,4836v-43.5h31.5v5.1h-25.7v13.3h24.1v5.1h-24.1v14.8h26.7v5.1h-32.5V4836z"/>
</g>
<g class="st6">
	<path d="M3879.2,4003.3v-43.5h16.4c2.9,0,5.1,0.1,6.6,0.4c2.1,0.4,3.9,1,5.4,2c1.4,1,2.6,2.4,3.5,4.2s1.3,3.8,1.3,5.9
		c0,3.7-1.2,6.8-3.5,9.4c-2.4,2.6-6.6,3.8-12.8,3.8h-11.2v17.7h-5.7V4003.3z M3884.9,3980.5h11.3c3.7,0,6.4-0.7,7.9-2.1
		c1.6-1.4,2.3-3.3,2.3-5.8c0-1.8-0.5-3.4-1.4-4.7s-2.1-2.2-3.6-2.6c-1-0.3-2.8-0.4-5.4-0.4h-11.1V3980.5z"/>
	<path d="M3918,3982.1c0-7.2,1.9-12.9,5.8-17c3.9-4.1,8.9-6.1,15-6.1c4,0,7.6,1,10.9,2.9c3.2,1.9,5.7,4.6,7.4,8s2.5,7.3,2.5,11.7
		s-0.9,8.4-2.7,11.8s-4.3,6.1-7.6,7.9s-6.8,2.7-10.6,2.7c-4.1,0-7.8-1-11-3s-5.7-4.7-7.3-8.1C3918.8,3989.5,3918,3985.9,3918,3982.1
		z M3923.9,3982.2c0,5.2,1.4,9.4,4.2,12.4s6.4,4.5,10.6,4.5c4.3,0,7.9-1.5,10.7-4.6c2.8-3,4.2-7.4,4.2-13c0-3.5-0.6-6.6-1.8-9.3
		c-1.2-2.6-2.9-4.7-5.3-6.1c-2.3-1.5-4.9-2.2-7.8-2.2c-4.1,0-7.6,1.4-10.5,4.2C3925.4,3971,3923.9,3975.6,3923.9,3982.2z"/>
	<path d="M3998.1,3988l5.8,1.5c-1.2,4.7-3.4,8.3-6.5,10.8s-7,3.7-11.5,3.7c-4.7,0-8.5-1-11.4-2.9s-5.2-4.7-6.7-8.3
		s-2.3-7.5-2.3-11.7c0-4.5,0.9-8.5,2.6-11.9c1.7-3.4,4.2-5.9,7.4-7.7s6.7-2.6,10.6-2.6c4.4,0,8,1.1,11,3.3s5,5.3,6.2,9.4l-5.7,1.3
		c-1-3.2-2.5-5.5-4.4-6.9s-4.3-2.2-7.2-2.2c-3.3,0-6.1,0.8-8.4,2.4c-2.2,1.6-3.8,3.8-4.7,6.5s-1.4,5.5-1.4,8.4
		c0,3.7,0.5,6.9,1.6,9.7s2.8,4.8,5,6.2c2.3,1.4,4.7,2,7.4,2c3.2,0,6-0.9,8.2-2.8C3995.8,3994.5,3997.3,3991.7,3998.1,3988z"/>
	<path d="M4010.7,4003.3v-43.5h5.8v21.6l21.6-21.6h7.8l-18.3,17.6l19.1,25.9h-7.6l-15.5-22l-7.1,6.9v15.1H4010.7z"/>
	<path d="M4051.6,4003.3v-43.5h31.5v5.1h-25.7v13.3h24.1v5.1h-24.1v14.8h26.7v5.1L4051.6,4003.3L4051.6,4003.3z"/>
	<path d="M4103.1,4003.3v-38.4h-14.3v-5.1h34.5v5.1h-14.4v38.4H4103.1z"/>
</g>
<g class="st6">
	<path d="M378.6,3030.2l5.4-0.5c0.3,2.2,0.9,4,1.8,5.4s2.4,2.5,4.4,3.4s4.2,1.3,6.7,1.3c2.2,0,4.1-0.3,5.8-1
		c1.7-0.7,2.9-1.5,3.8-2.7c0.8-1.1,1.2-2.4,1.2-3.7c0-1.4-0.4-2.6-1.2-3.6s-2.1-1.9-3.9-2.6c-1.2-0.5-3.8-1.2-7.7-2.1
		c-4-1-6.8-1.9-8.4-2.7c-2.1-1.1-3.6-2.4-4.6-4.1c-1-1.6-1.5-3.4-1.5-5.4c0-2.2,0.6-4.2,1.9-6.2c1.2-1.9,3.1-3.4,5.5-4.3
		c2.4-1,5.1-1.5,8-1.5c3.2,0,6.1,0.5,8.5,1.6s4.4,2.6,5.7,4.6c1.3,2,2,4.3,2.1,6.9l-5.5,0.4c-0.3-2.8-1.3-4.8-3-6.2
		s-4.2-2.1-7.6-2.1c-3.5,0-6,0.6-7.6,1.9c-1.6,1.3-2.4,2.8-2.4,4.6c0,1.6,0.6,2.8,1.7,3.9c1.1,1,4,2,8.7,3.1s7.9,2,9.6,2.8
		c2.5,1.2,4.4,2.6,5.6,4.4s1.8,3.9,1.8,6.2s-0.7,4.5-2,6.5s-3.2,3.6-5.7,4.8c-2.5,1.1-5.3,1.7-8.4,1.7c-3.9,0-7.2-0.6-9.9-1.7
		c-2.7-1.1-4.8-2.9-6.3-5.2C379.5,3035.7,378.7,3033.1,378.6,3030.2z"/>
	<path d="M422.1,3044.2v-43.5h5.8v43.5H422.1z"/>
	<path d="M438,3044.2v-43.5h15c3.4,0,6,0.2,7.7,0.6c2.5,0.6,4.6,1.6,6.4,3.1c2.3,1.9,4,4.4,5.2,7.4c1.1,3,1.7,6.5,1.7,10.3
		c0,3.3-0.4,6.2-1.2,8.8c-0.8,2.6-1.8,4.7-3,6.3c-1.2,1.7-2.5,3-4,3.9c-1.4,1-3.2,1.7-5.2,2.2s-4.4,0.7-7,0.7H438V3044.2z
		 M443.8,3039.1h9.3c2.9,0,5.1-0.3,6.8-0.8s2.9-1.3,3.9-2.3c1.4-1.4,2.4-3.2,3.2-5.5c0.8-2.3,1.1-5.1,1.1-8.4
		c0-4.6-0.7-8.1-2.2-10.5s-3.3-4.1-5.4-4.9c-1.5-0.6-4-0.9-7.5-0.9h-9.1L443.8,3039.1L443.8,3039.1z"/>
	<path d="M482.1,3044.2v-43.5h31.5v5.1h-25.7v13.3H512v5.1h-24.1v14.8h26.7v5.1L482.1,3044.2L482.1,3044.2z"/>
	<path d="M540.4,3044.2v-43.5h5.8v43.5H540.4z"/>
	<path d="M556.2,3044.2v-43.5h5.9l22.9,34.2v-34.2h5.5v43.5h-5.9l-22.9-34.2v34.2H556.2z"/>
	<path d="M598.2,3030.2l5.4-0.5c0.3,2.2,0.9,4,1.8,5.4c0.9,1.4,2.4,2.5,4.4,3.4s4.2,1.3,6.7,1.3c2.2,0,4.1-0.3,5.8-1
		s2.9-1.5,3.8-2.7c0.8-1.1,1.2-2.4,1.2-3.7c0-1.4-0.4-2.6-1.2-3.6s-2.1-1.9-3.9-2.6c-1.2-0.5-3.8-1.2-7.7-2.1c-4-1-6.8-1.9-8.4-2.7
		c-2.1-1.1-3.6-2.4-4.6-4.1c-1-1.6-1.5-3.4-1.5-5.4c0-2.2,0.6-4.2,1.9-6.2c1.2-1.9,3.1-3.4,5.5-4.3c2.4-1,5.1-1.5,8-1.5
		c3.2,0,6.1,0.5,8.5,1.6s4.4,2.6,5.7,4.6s2,4.3,2.1,6.9l-5.5,0.4c-0.3-2.8-1.3-4.8-3-6.2s-4.2-2.1-7.6-2.1c-3.5,0-6,0.6-7.6,1.9
		c-1.6,1.3-2.4,2.8-2.4,4.6c0,1.6,0.6,2.8,1.7,3.9c1.1,1,4,2,8.7,3.1s7.9,2,9.6,2.8c2.5,1.2,4.4,2.6,5.6,4.4s1.8,3.9,1.8,6.2
		s-0.7,4.5-2,6.5s-3.2,3.6-5.7,4.8c-2.5,1.1-5.3,1.7-8.4,1.7c-3.9,0-7.2-0.6-9.9-1.7c-2.7-1.1-4.8-2.9-6.3-5.2
		C599.1,3035.7,598.3,3033.1,598.2,3030.2z"/>
	<path d="M641.7,3044.2v-43.5h5.8v43.5H641.7z"/>
	<path d="M657.6,3044.2v-43.5h15c3.4,0,6,0.2,7.7,0.6c2.5,0.6,4.6,1.6,6.4,3.1c2.3,1.9,4,4.4,5.2,7.4c1.1,3,1.7,6.5,1.7,10.3
		c0,3.3-0.4,6.2-1.2,8.8s-1.8,4.7-3,6.3c-1.2,1.7-2.5,3-4,3.9c-1.4,1-3.2,1.7-5.2,2.2s-4.4,0.7-7,0.7h-15.6V3044.2z M663.4,3039.1
		h9.3c2.9,0,5.1-0.3,6.8-0.8s2.9-1.3,3.9-2.3c1.4-1.4,2.4-3.2,3.2-5.5s1.1-5.1,1.1-8.4c0-4.6-0.7-8.1-2.2-10.5s-3.3-4.1-5.4-4.9
		c-1.5-0.6-4-0.9-7.5-0.9h-9.1L663.4,3039.1L663.4,3039.1z"/>
	<path d="M701.7,3044.2v-43.5h31.5v5.1h-25.7v13.3h24.1v5.1h-24.1v14.8h26.7v5.1L701.7,3044.2L701.7,3044.2z"/>
</g>
<g>
	<path class="st3" d="M4815,1142.6c-24,105.4-44.7,210-62.8,313.9H3139.4c-18.1-103.9-38.8-208.5-62.8-313.9
		c27.4-38.1,49.6-75.1,68.5-111.2h1601.3C4765.4,1067.6,4787.6,1104.5,4815,1142.6z"/>
	<path class="st4" d="M3139.4,1456.6h1612.8c-85.6,491.8-111.5,967.8-138.4,1444.1c-141.9,64.6-348.1,102.6-668,93.6
		c-319.9,9-526-28.9-668-93.6C3250.9,2424.3,3225,1948.3,3139.4,1456.6z"/>
	<path class="st1" d="M4746.5,1031.4H3145.1c71.6-136.8,97.5-261.7,189-386.6c102.9-137.5,248.7-221,412.9-281.5
		c46.4,31.8,115.7,40.9,198.8,41.5c83.2-0.6,152.5-9.8,198.8-41.5c164.1,60.5,310,144,412.9,281.5
		C4649,769.7,4674.9,894.6,4746.5,1031.4z"/>
</g>
<g>
	<g>
		<rect x="3009" y="1193.8" class="st5" width="462.5" height="124.4"/>
		<rect x="4420" y="1193.8" class="st5" width="462.5" height="124.4"/>
	</g>
	<g>
		<path class="st5" d="M3689.2,1247h-55.4v-24.4c0-7.1-0.6-11.5-1.8-13.3s-3.8-2.6-7.8-2.6c-4.6,0-7.5,1.1-8.7,3.2
			s-1.8,6.8-1.8,13.9v65.2c0,6.8,0.6,11.3,1.8,13.3c1.2,2.1,4,3.1,8.3,3.1c4.1,0,6.8-1,8.1-3.1s1.9-7,1.9-14.7V1270h55.4v5.5
			c0,14.5-1.6,24.8-4.7,30.9c-3.1,6.1-10,11.4-20.7,16s-23.8,6.9-39.4,6.9c-16.2,0-29.6-1.9-40.1-5.8s-17.5-9.2-20.9-16.1
			c-3.4-6.8-5.1-17.1-5.1-30.9v-41c0-10.1,0.5-17.7,1.6-22.8c1.1-5.1,4.2-9.9,9.4-14.6s12.5-8.4,21.7-11.1c9.3-2.7,19.9-4,31.9-4
			c16.3,0,29.8,2.1,40.4,6.2c10.6,4.2,17.6,9.3,20.9,15.5c3.3,6.2,5,15.9,5,29L3689.2,1247L3689.2,1247z"/>
		<path class="st5" d="M3829.3,1185.9l-40.4,89.5v50.8h-51.3v-50.8l-39-89.5h50.9c8,27.4,12.4,45.8,13.5,55.3
			c3.1-15,8.2-33.4,15.4-55.3H3829.3z"/>
		<path class="st5" d="M3970.4,1247H3915v-24.4c0-7.1-0.6-11.5-1.8-13.3s-3.8-2.6-7.8-2.6c-4.6,0-7.5,1.1-8.7,3.2s-1.8,6.8-1.8,13.9
			v65.2c0,6.8,0.6,11.3,1.8,13.3c1.2,2.1,4,3.1,8.3,3.1c4.1,0,6.8-1,8.1-3.1s1.9-7,1.9-14.7V1270h55.4v5.5c0,14.5-1.6,24.8-4.7,30.9
			c-3.1,6.1-10,11.4-20.7,16s-23.8,6.9-39.4,6.9c-16.2,0-29.6-1.9-40.1-5.8s-17.5-9.2-20.9-16.1c-3.4-6.8-5.1-17.1-5.1-30.9v-41
			c0-10.1,0.5-17.7,1.6-22.8c1.1-5.1,4.2-9.9,9.4-14.6s12.5-8.4,21.7-11.1c9.3-2.7,19.9-4,31.9-4c16.3,0,29.8,2.1,40.4,6.2
			c10.6,4.2,17.6,9.3,20.9,15.5c3.3,6.2,5,15.9,5,29L3970.4,1247L3970.4,1247z"/>
		<path class="st5" d="M4047.8,1185.9v112.3h33.7v28.1h-89.1V1186L4047.8,1185.9L4047.8,1185.9z"/>
		<path class="st5" d="M4097.1,1185.9h92.4v28.1h-37v26.6h34.6v26.7h-34.6v30.9h40.7v28.1h-96.1V1185.9z"/>
		<path class="st5" d="M4328.7,1228.4h-51.5V1218c0-4.9-0.7-7.9-2-9.3c-1.3-1.3-3.5-2-6.6-2c-3.3,0-5.9,0.9-7.6,2.7
			c-1.7,1.8-2.6,4.5-2.6,8.2c0,4.7,1,8.2,2.9,10.6c1.8,2.4,7.1,5.2,15.7,8.6c24.7,9.6,40.2,17.6,46.6,23.7
			c6.4,6.2,9.6,16.2,9.6,29.9c0,10-1.8,17.4-5.3,22.1c-3.6,4.7-10.4,8.7-20.6,11.9c-10.2,3.2-22,4.8-35.5,4.8
			c-14.8,0-27.5-1.8-38-5.5s-17.4-8.4-20.6-14.1s-4.9-13.8-4.9-24.4v-9.2h51.5v17.1c0,5.3,0.7,8.6,2.2,10.1c1.4,1.5,4,2.3,7.7,2.3
			s6.4-1,8.2-2.9c1.8-1.9,2.7-4.7,2.7-8.5c0-8.3-1.7-13.7-5.1-16.2c-3.5-2.5-12.2-6.8-25.9-12.7c-13.8-6-22.9-10.4-27.4-13.1
			s-8.2-6.5-11.1-11.3s-4.4-10.9-4.4-18.4c0-10.7,2.1-18.6,6.3-23.6c4.2-5,10.9-8.9,20.2-11.7c9.3-2.8,20.5-4.2,33.7-4.2
			c14.4,0,26.7,1.5,36.8,4.6c10.1,3.1,16.8,6.9,20.1,11.6c3.3,4.7,4.9,12.6,4.9,23.7L4328.7,1228.4L4328.7,1228.4z"/>
	</g>
</g>
</svg>
