<?xml version="1.0" encoding="utf-8"?>
<!-- Generator: Adobe Illustrator 26.3.1, SVG Export Plug-In . SVG Version: 6.00 Build 0)  -->
<svg version="1.1" id="Layer_1" xmlns="http://www.w3.org/2000/svg" xmlns:xlink="http://www.w3.org/1999/xlink" x="0px" y="0px"
	 viewBox="0 0 1024 1024" style="enable-background:new 0 0 1024 1024;" xml:space="preserve">
<style type="text/css">
	.st0{fill:#243036;}
	.st1{fill:#36444F;}
	.st2{fill:#374550;}
	.st3{fill:#2E3941;}
</style>
<g id="Layer_1_1_">
	<path id="Sides_x2C__Sleeves_and_Collar" class="st0" d="M142.3,578.1l-82,21.8l-3.1-0.6l-1.7-10.1V239.9l1.2-7.6l8.5-1.8
		c0,0,17,15.8,32.8,19.5c20.1,1.1,35.2-12,35.2-12l7.6,1.9l1.3,17.8L142.3,578.1L142.3,578.1z M509.5,578.1l82,21.8l3.1-0.6
		l1.7-10.1V239.9l-1.2-7.6l-8.5-1.8c0,0-17,15.8-32.8,19.5c-20.1,1.1-35.2-12-35.2-12l-7.6,1.9l-1.3,17.8L509.5,578.1L509.5,578.1z
		 M478.7,82.1l6.2-25.7l0.7-7.8l-3.9-1.4H173.9l-4.3,1.3v8.8l4.5,24.8l-4.5,23.7v8.4l4.3,1.3h307.8l3.9-1.4l-0.7-7.5L478.7,82.1z
		 M302.2,974.7H60.6L20.9,842.6C103.7,802.7,155.3,748,166.7,653l3.6-1.6l5.1,0.5c15.7,15.3,33.8,25,54.3,28.3
		c6.8,88.1,45.2,132.8,110.3,160.9L302.2,974.7z M384.5,974.7h241.6l39.9-132C583.2,802.8,531.5,748,520.2,653l-3.6-1.6l-5.1,0.5
		c-15.7,15.3-33.8,25-54.3,28.3C450.4,768.3,412,813,346.8,841.1L384.5,974.7z M947.9,809.9H669.8l-14.5-158.5V645l9.7-1.4h286.8
		l9.7,1.1v8L947.9,809.9z M963.5,625.5l-7.5-1.1H664.2l-6.9,1.2l-1,8.3l1,7l6.9,0.8H956l7.5-0.7l1.1-7.1L963.5,625.5z"/>
	<g id="Details">
		<path class="st1" d="M689,846.3h-3.9c-4.1-2.4-5-10.9-4.1-22.4h2v-4.3h6.1L689,846.3L689,846.3z"/>
		<path class="st1" d="M697.5,846.3h3.9c4.1-2.4,5-10.9,4.1-22.4h-1.9v-4.3h-6.1V846.3L697.5,846.3z"/>
		<path class="st1" d="M707.4,847.1h3.1c3.3-2.4,3.9-10.9,3.3-22.4h-0.9v-4.3h-5.4L707.4,847.1L707.4,847.1z"/>
		<path class="st1" d="M725.3,847.1h-3.1c-3.3-2.4-3.9-10.9-3.3-22.4h0.9v-4.3h5.4L725.3,847.1L725.3,847.1z"/>
		<rect x="690.7" y="819.5" class="st1" width="5.5" height="27.5"/>
		<polygon class="st1" points="732.4,820.9 730.9,820.9 730.2,825.8 728.3,825.8 728.3,821 726.6,821 726.6,825.8 726.6,827 
			728.3,827 730.1,827 731.4,827 731.5,827 731.5,826 		"/>
		<rect x="715.2" y="823.5" class="st1" width="2.4" height="22.9"/>
		<rect x="726.4" y="828" class="st1" width="2.6" height="5.7"/>
		<rect x="729.4" y="828" class="st1" width="2.2" height="5.6"/>
		<rect x="751.8" y="928.9" class="st1" width="43.9" height="12.9"/>
		<rect x="735.3" y="953.4" class="st1" width="11.6" height="27.5"/>
		<rect x="722.9" y="953.2" class="st1" width="11" height="26.9"/>
		<polygon class="st1" points="762.6,915.3 762.6,920.2 768.5,920.2 768.5,922.8 762.6,922.8 762.6,927.3 772.8,927.3 772.8,915.3 
					"/>
		<polygon class="st1" points="783.9,915.3 783.9,920.2 777.9,920.2 777.9,922.8 783.9,922.8 783.9,927.3 773.6,927.3 773.6,915.3 
					"/>
		<polygon class="st1" points="763.7,819.3 763.7,823.6 769.5,823.6 769.5,826.1 763.7,826.1 763.7,830.2 773.6,830.2 773.6,819.3 
					"/>
		<polygon class="st1" points="784.3,819.3 784.3,823.6 778.6,823.6 778.6,826.1 784.3,826.1 784.3,830.2 774.5,830.2 774.5,819.3 
					"/>
		<path class="st1" d="M731.8,915.6c-0.9,0-1.9,0.2-2.8,0.5l-2.8,4.3h-11.7l-3.6-4.1c-5.8,0.8-10.2,6.5-10.2,13.4
			c0,7.1,4.6,12.8,10.5,13.5l3.3-3.7h11.7l2.6,4.1c1.2,0.3,2.1,0.4,3.1,0.4c6.6,0,12-6.3,12-14.2S738.5,915.6,731.8,915.6z"/>
		<polygon class="st1" points="717.7,954.8 716.3,946.9 701.5,940.3 686.6,946.9 685.3,954.8 679.8,959.1 684.7,982.1 701.5,982.1 
			718.3,982.1 723.2,959.1 		"/>
		<rect x="753" y="831.7" class="st1" width="42.2" height="11.6"/>
		<rect x="873.7" y="834.7" class="st1" width="18.5" height="11.4"/>
		<rect x="873.7" y="847" class="st1" width="18.5" height="11.4"/>
		<rect x="873.7" y="858.8" class="st1" width="18.5" height="13.1"/>
		<rect x="873.7" y="872.5" class="st1" width="18.5" height="13.1"/>
		<rect x="825.5" y="861.2" class="st1" width="7.8" height="24.5"/>
		<rect x="839.7" y="861.2" class="st1" width="7.8" height="24.5"/>
		<rect x="853.9" y="861.2" class="st1" width="15.1" height="24.5"/>
		<rect x="834" y="861.2" class="st1" width="5.3" height="24.5"/>
		<rect x="847.9" y="861.2" class="st1" width="5.3" height="24.5"/>
		<rect x="870" y="861.4" class="st1" width="2.6" height="24.5"/>
		<rect x="838.1" y="852.7" class="st1" width="18.5" height="7.3"/>
		<rect x="826.7" y="848.2" class="st1" width="18.4" height="3.2"/>
		<rect x="847.3" y="848.2" class="st1" width="18.4" height="3.2"/>
		<polygon class="st1" points="828.3,852.7 825.8,852.6 826.6,860.6 831.1,860.6 831.7,852.8 829.6,852.8 829.7,858.4 828.4,858.4 
					"/>
		<polygon class="st1" points="834.6,852.7 832,852.6 832.7,860.6 837.2,860.6 837.7,852.8 835.1,852.8 835.4,858.4 834.4,858.4 		
			"/>
		<polygon class="st1" points="869.4,857.3 869.4,855.5 873.3,855.5 873.3,853.5 857.1,853.5 857.1,859.1 873.3,859.1 873.3,857.3 
					"/>
		<path class="st1" d="M878.6,821h2.1v10.8h9.1l0.1-10.7l2-0.2v11.9c0,0-7.8,2.7-13.6-0.1C878.5,832.9,878.6,821,878.6,821z"/>
		<polygon class="st1" points="880.8,819 882,831.2 889,831.1 889.9,819 887,818.8 886.2,829.2 884.6,829.2 883.5,818.7 		"/>
		<path class="st1" d="M943.5,827.2c-0.3-5.1-4.5-9.1-9.7-9.1l0,0l0,0l0,0l0,0c-5.1,0-9.3,4-9.7,9.1l-2.6,38.7v6
			c0,6.9,5.5,12.3,12.3,12.3l0,0l0,0l0,0l0,0c6.9,0,12.3-5.6,12.3-12.3v-6L943.5,827.2z M933.9,825.6c1.4,0.2,2.5,2.5,2.5,5.4
			s-1.2,5.2-2.5,5.4c-1.4-0.2-2.5-2.5-2.5-5.4C931.2,828.1,932.4,825.8,933.9,825.6z M933.9,876.7c-5.7-0.2-5.4-6.5-5.4-6.5h5.4h5.4
			C939.2,870.2,939.6,876.5,933.9,876.7z"/>
		<rect x="348.8" y="998.6" class="st1" width="636.4" height="4.6"/>
		<rect x="348.8" y="1006.9" class="st1" width="636.4" height="4.6"/>
	</g>
	<path id="Front_Right" class="st2" d="M326.5,154.6v6.4v100.3H167.3l-0.5-11.1c0,0,9.1-12.4,32.2-66.8c26.5-49.4,77-56.5,77-56.5
		C291,148.5,300.1,153,326.5,154.6z M326.5,261.4v70.3H170.6l-3.3-70.3L326.5,261.4L326.5,261.4z M326.5,331.7v236.4v5.2l-4.2-0.1
		c-48.8-0.2-89.1,5.8-129.7,15.1l-9.5,2.7l-1.1-13l-11.6-246.4L326.5,331.7L326.5,331.7z"/>
	<path id="Front_Left" class="st2" d="M377,126.9c0,0,50.5,7.2,77,56.5c23.1,54.3,32.2,66.8,32.2,66.8l-0.5,11.1H326.5V161v-6.4
		C352.9,153,361.9,148.5,377,126.9z M485.7,261.4l-3.3,70.3H326.5v-70.3L485.7,261.4L485.7,261.4z M326.5,331.7l156-0.1L470.9,578
		l-1.1,13l-9.5-2.7c-40.5-9.3-80.8-15.3-129.7-15.1l-4.2,0.1v-5.2V331.7H326.5z"/>
	<path id="Back" class="st3" d="M988.8,233.2c-5,21.6-9.2,43.1-12.9,64.5h-331c-3.7-21.3-7.9-42.8-12.9-64.5
		c5.6-7.8,10.1-15.4,14-22.8h328.6C978.6,217.8,983.1,225.4,988.8,233.2z M644.9,297.6h330.9c-17.6,101-22.9,198.6-28.4,296.3
		c-29.1,13.3-71.4,21.1-137,19.2c-65.6,1.9-107.9-5.9-137-19.2C667.8,496.3,662.5,398.6,644.9,297.6z M974.7,210.4H646.1
		c14.7-28.1,20-53.7,38.8-79.3c21.1-28.2,51.1-45.4,84.7-57.8c9.5,6.5,23.7,8.4,40.8,8.5c17.1-0.1,31.3-2,40.8-8.5
		c33.7,12.4,63.6,29.5,84.7,57.8C954.8,156.7,960,182.3,974.7,210.4z"/>
</g>
</svg>
