<?xml version="1.0" standalone="no"?>
<!DOCTYPE svg PUBLIC "-//W3C//DTD SVG 20010904//EN"
 "http://www.w3.org/TR/2001/REC-SVG-20010904/DTD/svg10.dtd">
<svg version="1.1" id="Layer_1" xmlns="http://www.w3.org/2000/svg" xmlns:xlink="http://www.w3.org/1999/xlink" x="0px" y="0px"
     viewBox="0 0 1024 1024" style="enable-background:new 0 0 1024 1024; background: #f4f4f4;" xml:space="preserve">
<style type="text/css">
    .st0{fill:#003160;}
    .st1{fill:#164194;}
    .st2{fill:#0090D7;}
    .st3{fill:#FFFFFF;}
</style>

<g stroke="none" style="background: #ccc;">
<path id="ZONE_x28_Right_Side_Panel_x29_" class="st0" style=" stroke:none;fill-rule:nonzero;fill:rgb(82.352941%,84.705882%,10.588235%);fill-opacity:1;" d="M 141.558594 578.296875 L 59.628906 600.164062 L 56.535156 599.546875 L 54.871094 589.457031 L 54.871094 240.246094 L 56.019531 232.65625 L 64.59375 230.890625 C 64.59375 230.890625 81.558594 246.75 97.394531 250.359375 C 117.496094 251.382812 132.65625 238.378906 132.65625 238.378906 L 140.265625 240.246094 L 141.539062 258.03125 L 141.539062 578.296875 Z M 141.558594 578.296875 "/>
<path id="ZONE_x28_Right_Front_x29_" style=" stroke:none;fill-rule:nonzero;fill:rgb(43.137255%,78.039216%,85.882353%);fill-opacity:1;" d="M 329.558594 569.394531 L 328.800781 573.292969 L 325.355469 574.542969 C 276.535156 574.339844 232.371094 579.40625 191.957031 588.675781 L 184.0625 589.496094 L 182.398438 579.40625 L 167.035156 251.609375 C 167.035156 251.609375 176.125 239.136719 199.179688 184.882812 C 225.601562 135.527344 276.207031 128.371094 276.207031 128.371094 C 291.199219 149.847656 302.152344 154.996094 328.535156 156.59375 L 329.578125 162.398438 Z M 329.558594 569.394531 "/>
<path id="ZONE_x28_Left_Front_x29_" style="fill-rule:nonzero;fill:rgb(43.137255%,78.039216%,85.882353%);fill-opacity:1;stroke-width:1;stroke-linecap:butt;stroke-linejoin:miter;stroke:rgb(0%,0%,0%);stroke-opacity:1;stroke-miterlimit:10;" d="M 1649.197266 2775.79834 L 1652.891602 2794.803223 L 1669.706543 2800.896973 C 1907.705566 2799.906738 2123.005371 2824.605469 2320.004883 2869.794434 L 2358.490723 2873.793457 L 2366.603027 2824.605469 L 2441.499023 1226.595703 C 2441.499023 1226.595703 2397.205078 1165.791504 2284.794434 901.303711 C 2156.006836 660.695801 1909.305176 625.809082 1909.305176 625.809082 C 1836.199219 730.507324 1782.802734 755.605957 1654.205566 763.394531 L 1649.102051 791.692383 Z M 1649.197266 2775.79834 " transform="matrix(0.205128,0,0,0.205128,0,0)"/>
<path id="ZONE_x28_First_Stripe_R_x29_" style=" stroke:none;fill-rule:nonzero;fill:rgb(88.627451%,58.431373%,10.196078%);fill-opacity:1;" d="M 329.578125 282.152344 L 168.429688 282.152344 L 167.488281 261.148438 L 329.578125 261.148438 Z M 329.578125 282.152344 "/>
<path id="ZONE_x28_Left_Side_Panel_x29_" style=" stroke:none;fill-rule:nonzero;fill:rgb(88.627451%,58.431373%,10.196078%);fill-opacity:1;" d="M 338.359375 282.152344 L 499.507812 282.152344 L 500.453125 261.148438 L 338.359375 261.148438 Z M 338.359375 282.152344 "/>
<path id="ZONE_x28_Sleeve_x29_" style=" stroke:none;fill-rule:nonzero;fill:rgb(82.352941%,84.705882%,10.588235%);fill-opacity:1;" d="M 509.578125 578.296875 L 591.507812 600.164062 L 594.605469 599.546875 L 596.265625 589.457031 L 596.265625 240.246094 L 595.117188 232.65625 L 586.542969 230.890625 C 586.542969 230.890625 569.578125 246.75 553.742188 250.359375 C 533.640625 251.382812 518.480469 238.378906 518.480469 238.378906 L 510.871094 240.246094 L 509.601562 258.03125 L 509.601562 578.296875 Z M 509.578125 578.296875 "/>
<path id="ZONE_x28_Right_Shoulder_x29_" style=" stroke:none;fill-rule:nonzero;fill:rgb(82.352941%,84.705882%,10.588235%);fill-opacity:1;" d="M 524.636719 79.117188 L 530.808594 53.476562 L 531.464844 45.660156 L 527.546875 44.289062 L 219.957031 44.289062 L 215.671875 45.640625 L 215.671875 54.339844 L 220.207031 79.117188 L 215.671875 102.890625 L 215.671875 111.261719 L 219.957031 112.535156 L 527.546875 112.535156 L 531.464844 111.21875 L 530.808594 103.710938 Z M 524.636719 79.117188 "/>
<path id="ZONE_x28_Left_Shoulder_x29_" style=" stroke:none;fill-rule:nonzero;fill:rgb(82.352941%,84.705882%,10.588235%);fill-opacity:1;" d="M 302.441406 974.6875 L 61.003906 974.6875 L 21.128906 842.726562 C 103.917969 802.851562 155.527344 748.0625 166.890625 653.167969 L 170.480469 651.570312 L 175.527344 652.0625 C 191.261719 667.300781 209.230469 677.066406 229.785156 680.371094 C 236.574219 768.410156 274.890625 813.128906 340.125 841.191406 Z M 302.441406 974.6875 "/>
<path id="ZONE_x28_Back_Pocket_x29_" style=" stroke:none;fill-rule:nonzero;fill:rgb(82.352941%,84.705882%,10.588235%);fill-opacity:1;" d="M 384.675781 974.6875 L 626.113281 974.6875 L 665.988281 842.75 C 583.199219 802.871094 531.589844 748.082031 520.226562 653.191406 L 516.636719 651.589844 L 511.589844 652.082031 C 495.855469 667.324219 477.886719 677.085938 457.332031 680.390625 C 450.542969 768.429688 412.226562 813.148438 346.996094 841.210938 Z M 384.675781 974.6875 "/>
<path id="ZONE_x28_Back_x29_" style=" stroke:none;fill-rule:nonzero;fill:rgb(82.352941%,84.705882%,10.588235%);fill-opacity:1;" d="M 948.78125 809.96875 L 670.890625 809.96875 L 656.308594 651.570312 L 656.308594 645.148438 L 665.988281 643.792969 L 952.738281 643.792969 L 962.441406 644.839844 L 962.441406 652.921875 Z M 948.78125 809.96875 "/>
<path style=" stroke:none;fill-rule:nonzero;fill:rgb(82.352941%,84.705882%,10.588235%);fill-opacity:1;" d="M 962.441406 625.621094 L 954.953125 624.65625 L 663.300781 624.65625 L 656.308594 625.742188 L 655.324219 634.152344 L 656.308594 641.027344 L 663.300781 641.90625 L 954.953125 641.90625 L 962.441406 641.128906 L 963.488281 634.152344 Z M 962.441406 625.621094 "/>
<path style=" stroke:none;fill-rule:nonzero;fill:rgb(82.352941%,84.705882%,10.588235%);fill-opacity:1;" d="M 934.871094 132.183594 C 913.765625 104.125 883.835938 87.078125 850.175781 74.726562 C 840.675781 81.191406 826.460938 83.078125 809.394531 83.199219 C 792.347656 83.078125 778.132812 81.210938 768.617188 74.726562 C 734.933594 87.078125 705.027344 104.125 683.917969 132.183594 C 660.183594 164.429688 657.96875 196.675781 631.097656 233.804688 C 659.300781 357.210938 665.683594 474.890625 672.371094 592.65625 C 701.496094 605.847656 743.773438 613.601562 809.394531 611.753906 C 875.015625 613.601562 917.3125 605.847656 946.421875 592.65625 C 953.109375 474.890625 959.488281 357.230469 987.691406 233.804688 C 960.820312 196.699219 958.605469 164.429688 934.871094 132.183594 Z M 934.871094 132.183594 "/>
</g>
</svg>