<?xml version="1.0" encoding="utf-8"?>
<!-- Generator: Adobe Illustrator 26.3.1, SVG Export Plug-In . SVG Version: 6.00 Build 0)  -->
<svg version="1.1" id="Style_1" xmlns="http://www.w3.org/2000/svg" xmlns:xlink="http://www.w3.org/1999/xlink" x="0px" y="0px"
	 viewBox="0 0 1024 1024" style="enable-background:new 0 0 1024 1024;" xml:space="preserve">
<style type="text/css">
	.st0{fill:#9A9999;}
	.st1{fill:#343434;}
	.st2{fill:#1E1E1C;}
	.st3{fill:#B6CCE2;}
</style>


<!-- <path id="ZONE_x28_Main_Body" class="st0" d="M531.8,88.6l6.1-25.2l0.6-7.7l-3.9-1.4H232.3l-4.2,1.3v8.5l4.5,24.4l-4.5,23.4v8.2l4.2,1.2
	h302.3l3.9-1.3l-0.6-7.4L531.8,88.6z M340.1,570.4l-0.7,3.8l-3.4,1.2c-48-0.2-91.4,4.8-131.1,13.9l-7.8,0.8l-1.6-9.9l-15.1-322.2
	c0,0,8.9-12.3,31.6-65.6c26-48.5,75.7-55.5,75.7-55.5c14.7,21.1,25.5,26.2,51.4,27.7l1,5.7L340.1,570.4z M348.6,570.4l0.7,3.8
	l3.4,1.2c48-0.2,91.4,4.8,131.1,13.9l7.8,0.8l1.6-9.9l15.1-322.2c0,0-8.9-12.3-31.6-65.6c-26-48.5-75.7-55.5-75.7-55.5
	c-14.7,21.1-25.5,26.2-51.4,27.7l-1,5.7L348.6,570.4L348.6,570.4z M155.3,579.2l-80.5,21.5l-3-0.6l-1.6-9.9V246.9l1.1-7.5l8.4-1.7
	c0,0,16.7,15.6,32.2,19.1c19.8,1,34.7-11.8,34.7-11.8l7.5,1.8l1.3,17.5L155.3,579.2L155.3,579.2z M517,579.2l80.5,21.5l3-0.6
	l1.6-9.9V246.9l-1.1-7.5l-8.4-1.7c0,0-16.7,15.6-32.2,19.1c-19.8,1-34.7-11.8-34.7-11.8l-7.5,1.8l-1.2,17.5L517,579.2L517,579.2z
	 M313.4,968.8H76.1L36.9,839.1c81.4-39.2,132.1-93,143.3-186.3l3.5-1.6l5,0.5c15.5,15,33.1,24.6,53.3,27.8
	c6.7,86.5,44.3,130.5,108.4,158.1L313.4,968.8z M394.2,968.8h237.3l39.2-129.7c-81.4-39.2-132.1-93-143.3-186.3l-3.5-1.6l-5,0.5
	c-15.5,15-33.1,24.6-53.3,27.8C459,766.1,421.3,810,357.2,837.6L394.2,968.8z M948.7,806.9H675.5l-14.3-155.7v-6.3l9.5-1.3h281.8
	l9.5,1v7.9L948.7,806.9z M962.1,625.7l-7.4-0.9H668.1l-6.9,1.1l-1,8.3l1,6.8l6.9,0.9h286.7l7.4-0.8l1-6.9L962.1,625.7z M935,140.7
	c-20.7-27.6-50.2-44.3-83.2-56.5c-9.3,6.4-23.3,8.2-40.1,8.3c-16.8-0.1-30.7-2-40.1-8.3c-33.1,12.1-62.5,28.9-83.2,56.5
	c-23.3,31.7-25.5,63.4-51.9,99.9c27.7,121.3,34,237,40.6,352.7c28.6,13,70.2,20.6,134.7,18.8c64.5,1.8,106.1-5.8,134.7-18.8
	c6.6-115.7,12.8-231.4,40.6-352.7C960.5,204.1,958.3,172.4,935,140.7z"/> -->

<path id="ZONE_x28_Main_Body_x29_" class="st0" style=" stroke:none;fill-rule:nonzero;fill:rgb(47.05882%,49.8%,52.1%);fill-opacity:1;" d="M 141.558594 578.296875 L 59.628906 600.164062 L 56.535156 599.546875 L 54.871094 589.457031 L 54.871094 240.246094 L 56.019531 232.65625 L 64.59375 230.890625 C 64.59375 230.890625 81.558594 246.75 97.394531 250.359375 C 117.496094 251.382812 132.65625 238.378906 132.65625 238.378906 L 140.265625 240.246094 L 141.539062 258.03125 L 141.539062 578.296875 Z M 141.558594 578.296875 
    M 329.558594 569.394531 L 328.800781 573.292969 L 325.355469 574.542969 C 276.535156 574.339844 232.371094 579.40625 191.957031 588.675781 L 184.0625 589.496094 L 182.398438 579.40625 L 167.035156 251.609375 C 167.035156 251.609375 176.125 239.136719 199.179688 184.882812 C 225.601562 135.527344 276.207031 128.371094 276.207031 128.371094 C 291.199219 149.847656 302.152344 154.996094 328.535156 156.59375 L 329.578125 162.398438 Z M 329.558594 569.394531


M348.6,570.4l0.7,3.8
    l3.4,1.2c48-0.2,91.4,4.8,131.1,13.9l7.8,0.8l1.6-9.9l15.1-322.2c0,0-8.9-12.3-31.6-65.6c-26-48.5-75.7-55.5-75.7-55.5
    c-14.7,21.1-25.5,26.2-51.4,27.7l-1,5.7L348.6,570.4L348.6,570.4z 

M 509.578125 578.296875 L 591.507812 600.164062 L 594.605469 599.546875 L 596.265625 589.457031 L 596.265625 240.246094 L 595.117188 232.65625 L 586.542969 230.890625 C 586.542969 230.890625 569.578125 246.75 553.742188 250.359375 C 533.640625 251.382812 518.480469 238.378906 518.480469 238.378906 L 510.871094 240.246094 L 509.601562 258.03125 L 509.601562 578.296875 Z M 509.578125 578.296875    

M 524.636719 79.117188 L 530.808594 53.476562 L 531.464844 45.660156 L 527.546875 44.289062 L 219.957031 44.289062 L 215.671875 45.640625 L 215.671875 54.339844 L 220.207031 79.117188 L 215.671875 102.890625 L 215.671875 111.261719 L 219.957031 112.535156 L 527.546875 112.535156 L 531.464844 111.21875 L 530.808594 103.710938 Z M 524.636719 79.117188

M 302.441406 974.6875 L 61.003906 974.6875 L 21.128906 842.726562 C 103.917969 802.851562 155.527344 748.0625 166.890625 653.167969 L 170.480469 651.570312 L 175.527344 652.0625 C 191.261719 667.300781 209.230469 677.066406 229.785156 680.371094 C 236.574219 768.410156 274.890625 813.128906 340.125 841.191406 Z M 302.441406 974.6875

M 384.675781 974.6875 L 626.113281 974.6875 L 665.988281 842.75 C 583.199219 802.871094 531.589844 748.082031 520.226562 653.191406 L 516.636719 651.589844 L 511.589844 652.082031 C 495.855469 667.324219 477.886719 677.085938 457.332031 680.390625 C 450.542969 768.429688 412.226562 813.148438 346.996094 841.210938 Z M 384.675781 974.6875

M 948.78125 809.96875 L 670.890625 809.96875 L 656.308594 651.570312 L 656.308594 645.148438 L 665.988281 643.792969 L 952.738281 643.792969 L 962.441406 644.839844 L 962.441406 652.921875 Z M 948.78125 809.96875
M 962.441406 625.621094 L 954.953125 624.65625 L 663.300781 624.65625 L 656.308594 625.742188 L 655.324219 634.152344 L 656.308594 641.027344 L 663.300781 641.90625 L 954.953125 641.90625 L 962.441406 641.128906 L 963.488281 634.152344 Z M 962.441406 625.621094 

M 934.871094 132.183594 C 913.765625 104.125 883.835938 87.078125 850.175781 74.726562 C 840.675781 81.191406 826.460938 83.078125 809.394531 83.199219 C 792.347656 83.078125 778.132812 81.210938 768.617188 74.726562 C 734.933594 87.078125 705.027344 104.125 683.917969 132.183594 C 660.183594 164.429688 657.96875 196.675781 631.097656 233.804688 C 659.300781 357.210938 665.683594 474.890625 672.371094 592.65625 C 701.496094 605.847656 743.773438 613.601562 809.394531 611.753906 C 875.015625 613.601562 917.3125 605.847656 946.421875 592.65625 C 953.109375 474.890625 959.488281 357.230469 987.691406 233.804688 C 960.820312 196.699219 958.605469 164.429688 934.871094 132.183594 Z M 934.871094 132.183594 "/>

<path id="ZONE_x28_Colour_1" class="st1" d="M184.4,343.4l155.7-71.8v104.5l-150.9,69.3L184.4,343.4z M348.6,305.8l148.5-68l10,18.5
	l-2.6,86.4l-156,64.9L348.6,305.8z M306.9,307.7l33.3-15.4v104.5L307,412L306.9,307.7z"/>
<path id="ZONE_x28_Colour_2" class="st2" d="M189.2,445.4l151-69l-0.1,13.6l-150.3,68.9L189.2,445.4z M348.6,393.9l156.6-64.8l-0.6,13.6
	l-156,64.9L348.6,393.9z"/>
<path id="ZONE_x28_Colour_3" class="st3" d="M386,388.3l-37.4,15.9l0.4,24.7l36.3-15.1 M428.1,369.6l-37.4,15.9l0.4,24.7l36.3-15.1
	 M470.6,351.3l-37.4,15.9l0.4,24.7l36.3-15.1"/>
</svg>
