<?xml version="1.0" standalone="no"?>
<!DOCTYPE svg PUBLIC "-//W3C//DTD SVG 20010904//EN"
 "http://www.w3.org/TR/2001/REC-SVG-20010904/DTD/svg10.dtd">
<svg version="1.0" xmlns="http://www.w3.org/2000/svg"
 width="1024.000000pt" height="1024.000000pt" viewBox="0 0 1024.000000 1024.000000"
 preserveAspectRatio="xMidYMid meet">

<g transform="translate(0.000000,1024.000000) scale(0.100000,-0.100000)"
fill="#000000" stroke="none">
<path id="ZONE_x28_base_x29_" class="st0" d="M1924 10178 c-21 -46 -54 -88 -124 -158 -189 -190 -354 -245 -618
-206 -151 22 -246 51 -512 156 -124 48 -248 95 -275 103 l-51 15 -68 -157
c-38 -86 -116 -254 -174 -374 -58 -119 -103 -219 -101 -221 2 -2 60 -17 128
-34 181 -45 294 -103 390 -201 85 -85 128 -162 163 -288 19 -68 22 -106 22
-288 1 -191 -1 -217 -22 -290 -34 -118 -77 -190 -163 -278 -64 -64 -93 -85
-171 -122 -55 -26 -147 -58 -219 -76 -68 -17 -125 -32 -127 -33 -1 -2 42 -95
97 -207 54 -112 131 -280 171 -374 40 -93 73 -171 74 -172 5 -5 143 45 346
125 113 44 243 92 290 105 360 105 625 61 817 -135 77 -78 106 -117 144 -191
l30 -59 -38 6 c-38 7 -38 7 -68 -51 -83 -161 -297 -312 -496 -349 -116 -23
-281 -14 -414 21 -78 20 -388 135 -583 215 -19 8 -24 6 -32 -16 -42 -109 -169
-392 -247 -552 -53 -106 -94 -195 -92 -196 2 -2 42 -11 89 -20 317 -63 493
-203 569 -450 46 -151 49 -488 5 -636 -70 -239 -245 -380 -551 -445 -43 -9
-85 -19 -94 -21 -14 -4 0 -36 71 -177 49 -95 128 -264 175 -377 48 -113 91
-209 95 -214 5 -5 93 26 197 69 386 158 515 192 703 182 192 -10 357 -83 491
-216 42 -42 91 -102 109 -134 29 -52 35 -58 58 -52 47 12 307 54 432 69 373
47 1037 38 1820 -24 135 -11 266 -22 293 -26 l47 -6 0 51 c0 61 -13 59 196 31
421 -57 648 -77 1071 -92 514 -18 1057 4 1533 62 169 21 583 80 587 84 1 1 -6
92 -17 202 -86 899 -83 1752 6 2108 21 81 11 134 -24 142 -104 22 -178 73
-295 203 -156 175 -225 466 -167 697 31 122 103 294 194 464 46 85 81 159 78
164 -9 16 -263 132 -506 231 l-240 97 -19 -26 c-29 -41 -100 -84 -161 -100
-95 -25 -359 -40 -686 -39 -441 1 -517 14 -611 102 l-44 43 -215 -92 c-299
-129 -533 -248 -525 -269 3 -8 41 -76 84 -151 131 -226 180 -335 221 -495 55
-210 0 -466 -131 -609 -61 -67 -192 -171 -271 -215 l-58 -33 0 397 0 396 -52
-5 c-431 -48 -1393 -80 -1728 -57 -231 16 -541 59 -720 100 -33 8 -34 8 -10
14 133 33 359 63 580 78 327 22 1261 -8 1758 -58 l62 -6 0 1682 0 1683 -62 -7
c-347 -33 -1077 -60 -1438 -52 -292 7 -464 23 -729 67 -96 17 -185 30 -196 30
-16 0 -28 -15 -51 -62z m2620 -4508 c30 -250 40 -645 27 -1047 -10 -337 -29
-668 -50 -883 -5 -50 -8 374 -9 1025 0 611 4 1094 8 1075 5 -19 16 -96 24
-170z"/>
<path id="ZONE_x28_body-stripes-trim_x29_" class="st1" d="M8460 7695 c-326 -119 -474 -256 -542 -503 -19 -68 -21 -106 -22
-312 -1 -271 10 -339 74 -468 87 -173 230 -281 496 -378 l94 -34 37 55 c20 31
34 57 32 59 -2 1 -44 15 -94 30 -304 93 -463 251 -511 507 -22 113 -15 417 11
499 64 205 213 342 455 423 41 13 90 28 108 32 17 3 32 10 32 13 0 7 -69 112
-73 112 -1 -1 -45 -17 -97 -35z"/>
<path d="M8776 5962 c-14 -27 -38 -62 -54 -78 -35 -35 -166 -134 -362 -275
-304 -218 -414 -363 -456 -600 -22 -126 -14 -296 21 -439 80 -327 142 -417
396 -569 235 -141 307 -201 394 -330 64 -94 95 -170 95 -233 0 -38 10 -40 55
-12 75 45 187 95 288 129 l102 33 -2 48 c-1 27 -10 188 -19 359 -22 382 -22
978 0 1396 9 162 17 337 18 389 l3 95 -135 31 c-216 51 -278 69 -299 88 -19
17 -20 17 -45 -32z"/>
<path d="M140 3402 c0 -6 -18 -136 -40 -289 -76 -537 -90 -718 -97 -1293 -8
-655 11 -972 92 -1561 19 -140 35 -256 35 -258 0 -4 39 -1 325 28 818 84 1532
86 2155 6 63 -8 120 -15 126 -15 7 0 25 28 42 62 116 247 290 344 637 355 263
8 382 -26 651 -187 l148 -89 34 62 c53 95 141 292 227 510 l79 197 -42 41
c-62 62 -81 122 -92 302 -16 253 -18 451 -9 677 13 320 24 366 102 447 l40 42
-43 113 c-105 277 -280 658 -301 658 -4 0 -50 -26 -101 -58 -282 -178 -415
-223 -653 -223 -348 1 -554 108 -668 350 l-30 64 -66 -6 c-36 -3 -140 -14
-231 -23 -313 -34 -1092 -23 -1620 22 -170 14 -587 59 -662 71 -24 3 -38 2
-38 -5z"/>
<path d="M5446 2761 c-55 -82 -114 -138 -271 -256 -108 -81 -299 -249 -371
-326 -55 -58 -134 -169 -164 -230 -60 -117 -82 -218 -87 -394 -5 -154 -4 -164
26 -283 67 -264 123 -376 250 -503 71 -70 112 -100 238 -173 84 -49 187 -117
230 -153 43 -36 85 -70 94 -77 44 -31 145 -228 156 -302 8 -62 15 -69 49 -51
16 8 42 17 58 21 22 6 27 11 23 28 -7 27 66 116 128 154 l42 27 -18 71 c-24
93 -74 445 -94 662 -20 228 -20 696 0 915 19 197 47 394 84 587 l28 143 -36
15 c-20 9 -58 25 -86 36 -27 11 -57 26 -65 33 -8 7 -33 20 -54 29 -22 9 -56
35 -77 57 l-37 40 -46 -70z"/>
<path d="M6850 2723 c0 -31 -8 -60 -21 -83 -32 -52 -192 -205 -254 -242 -164
-100 -382 -263 -458 -342 -119 -125 -175 -237 -237 -480 -35 -138 -40 -170
-40 -271 0 -295 68 -476 253 -671 102 -108 190 -180 338 -276 195 -126 315
-232 355 -309 13 -27 26 -49 28 -49 2 0 33 17 67 39 55 33 67 37 88 27 21 -9
26 -7 40 14 19 31 78 91 110 112 l24 17 -28 96 c-85 301 -110 517 -110 955 1
426 23 671 100 1090 19 104 35 192 35 197 0 5 -36 27 -80 48 -76 37 -80 41
-80 73 0 50 -15 69 -60 77 -22 4 -42 11 -46 16 -13 22 -24 5 -24 -38z"/>
<path d="M8064 2582 c-20 -90 -31 -115 -79 -188 -81 -121 -135 -164 -385 -309
-216 -125 -268 -171 -327 -290 -41 -81 -69 -167 -105 -315 -25 -106 -29 -145
-30 -260 0 -170 17 -256 77 -377 64 -130 154 -222 390 -399 236 -177 319 -253
391 -357 32 -45 59 -84 62 -87 2 -3 14 7 27 22 26 30 79 52 270 110 72 22 135
41 140 43 7 2 7 45 -2 136 -38 417 -41 950 -9 1509 8 140 16 345 18 454 l3
199 -167 42 c-91 23 -189 53 -217 68 l-51 26 -6 -27z"/>
<path d="M8639 1465 c-53 -38 -93 -109 -108 -190 -23 -122 -34 -358 -28 -630
6 -295 22 -443 55 -518 20 -43 102 -127 125 -127 7 0 19 25 28 58 l16 59 -27
30 c-52 58 -80 271 -80 604 0 327 28 534 80 592 27 30 27 31 13 86 -8 31 -18
59 -21 63 -4 4 -28 -8 -53 -27z"/>
</g>
</svg>
