<?xml version="1.0" encoding="utf-8"?>
<!-- Generator: Adobe Illustrator 26.0.1, SVG Export Plug-In . SVG Version: 6.00 Build 0)  -->
<svg version="1.1" id="Layer_1" xmlns="http://www.w3.org/2000/svg" xmlns:xlink="http://www.w3.org/1999/xlink" x="0px" y="0px"
	 viewBox="0 0 1024 1024" style="enable-background:new 0 0 1024 1024;" xml:space="preserve">
<style type="text/css">
	.st0{fill:#1A1819;}
	.st1{fill:#FFFFFF;}
	.st2{fill:#1D1D1B;}
</style>
<path id="ZONE_x28_base_x29_" class="st0" d="M258.6,459c4.8,0,101.2,43.6,101.2,43.6s-18.6,55.4-22.6,81.2s-8,52,16,72.8l24,20.8
	c0,0,5.8,82,3.6,107s10.6,228,10.6,228H8.8c0,0,12.8-203.2,12-225.4s-1.4-108.8,0.8-113.2s28-12.4,33.2-35s10.2-48-1-85.2
	s-16-52.4-16-52.4l98-42.2L258.6,459L258.6,459z M553.6,474l-97.2,39.4c0,0,6.8,16.6,12.6,39.4c5.8,22.8-2.4,57.4-12.8,75
	c-11.8,20-32.4,19.2-34.6,23.8c-2.2,4.4,8.2,113,9.2,135.2c0.8,22.2-12,225.4-12,225.4h382.4c0,0-10.4-203-10.6-228
	c-1-69.6,12.8-131.2,12.8-131.2s-37.2-6.6-46.6-44.8s10.6-90,10.6-90s-92.2-40.4-97.2-40.4L553.6,474L553.6,474z"/>
<path id="ZONE_x28_side_x29_" class="st1" d="M2.4,648.4L3,762.8v3.2l0.4,67.6v4.6l0.4,67.2v9.6v17v4.6l0.4,81.8h56V692.2
	C60.2,658.4,2.4,648.4,2.4,648.4z M808,931.8v-3.6v-18.8v-9.2v-71.8v-6v-72v-4V650c0,0-53.8,8.6-53.8,42.4v326.2h54L808,931.8z
	 M406.8,647.2c0,0-65.4,11.2-65.4,45v326.2h130.8V692.2C472.2,658.4,406.8,647.2,406.8,647.2z"/>
<g id="ZONE_x28_stars_x29_">
	<path class="st2" d="M814.8,822.2H808h-13.4l-8-18.4l-6.2,19.2l-20,2l16.4,11.8l-4.2,19.6l16.2-11.8l17.4,10.2l-6.4-19.2l8.2-7.4
		L814.8,822.2z M803.2,913.4l4.6-4l10.6-9.2L808,900h-9.6l-7.8-18.6l-6.4,19l-20,1.8l16.2,12l-4.4,19.6l16.4-11.6l15.8,9.6l1.4,0.8
		l-1.4-4.4L803.2,913.4z M812.6,746.6l-4.8-0.4l-15.2-1.2l-6.6-19l-7.8,18.6l-20,0.4l15.2,13l-5.8,19.2l17.2-10.6l16.4,11.6
		l-4.8-19.6l11.2-8.6L812.6,746.6z M47.2,907l-20-1.6l-6.6-19L12.8,905l-9,0.2v9.6l4.2,3.6L3.8,932v4.6l15.4-9.4l16.6,11.6L31,919.2
		L47.2,907z M49.8,836.2l-19-1.8L25,816.2l-7.6,17.4h-14v4.6l9.2,8.2l-6,18.2L23,855l15.4,11.2l-4-18.6L49.8,836.2z M51.8,761.8
		l-19.4-0.4L25,743.6l-6.2,18.2L3.2,763v3.2l11.8,9L10.4,794l16-11l16.4,10l-5.6-18.4L51.8,761.8z M403.8,836.4l-20.2-0.4l-7.6-18.6
		l-6.6,19l-20.2,1.6l16,12.2l-4.8,19.6l16.6-11.4l17.2,10.6l-5.8-19.4L403.8,836.4z M408.8,914.4l-20.2-0.6l-7.4-18.8l-6.8,18.8
		l-20,1.2l15.8,12.4l-5,19.6l16.6-11.2l17,10.8l-5.6-19.4L408.8,914.4z M402.2,760.8l-20-2l-6.2-19.2l-8.2,18.4h-20.2l15,13.4
		l-6.2,19.2l17.4-10.2l16.2,12l-4.2-19.8L402.2,760.8z"/>
	<path class="st2" d="M459.2,910.6l-20-1.6l-6.6-19l-7.8,18.6l-20.2,0.4l15.4,13l-5.8,19.2l17.2-10.6l16.6,11.6l-4.8-19.6
		L459.2,910.6z M463.8,827.4l-20-2l-6.2-19.2l-8,18.4h-20.2l15,13.4l-6.4,19.2l17.4-10.2l16.2,12l-4.2-19.6L463.8,827.4z
		 M464.8,742.4l-20.2-0.4l-7.8-18.6l-6.6,19L410,744l16,12.2l-4.8,19.6l16.6-11.6l17.2,10.6l-5.8-19.2L464.8,742.4z"/>
</g>
<path id="ZONE_x28_inner-placket_x29_" class="st1" d="M914,825.8h21v91.4h-21V825.8z"/>
<path id="ZONE_x28_outer-placket_x29_" class="st2" d="M956.6,917.2L956.6,917.2v6.8l-48.2-0.4v-35.2l27.2,0.2V826h21V917.2z"/>
<path id="ZONE_x28_collar_x29_" class="st2" d="M813.2,661.2h48v345.4h-48V661.2z M867.4,657.8h35.2v355h-35.2V657.8z"/>
<path id="ZONE_x28_collar-trim_x29_" class="st1" d="M854.8,648.2h9V1016h-9V648.2z"/>
<path id="ZONE_x28_sleeves_x29_" class="st2" d="M37.6,282.2c0,0,24.2-9,28.6-14.2c15-18,42.6-44.6,54.2-50.8
	c14.4-7.8,36-16.6,96-14.4S315,263.2,318.2,266s31.8,16.6,31.8,16.6s-9.2,26.2-11.6,39.8c-2.2,13.6-0.4,39.8-0.4,39.8H49.2
	C51.2,324.6,37.6,282.2,37.6,282.2L37.6,282.2z M454.4,362.2h288.8c0,0-2-26.2,0.4-39.8c2.2-13.6,11.6-39.8,11.6-39.8
	s-28.6-14-31.8-16.6c-3-2.8-41.8-60.8-101.8-63.2s-81.6,6.6-96,14.4c-11.6,6.2-39.2,32.8-54.2,50.8c-4.4,5.4-28.6,14.2-28.6,14.2
	S456.2,324.6,454.4,362.2L454.4,362.2z"/>
<path id="ZONE_x28_sleeve-trim_x29_" class="st1" d="M24.2,348.4h731V367h-731L24.2,348.4L24.2,348.4z"/>
<path class="st1" d="M963.6,829.2c3.2,0,5.8-2.6,5.8-5.8s-2.6-5.8-5.8-5.8s-5.8,2.6-5.8,5.8C957.8,826.6,960.4,829.2,963.6,829.2z
	 M964,822.4c0.2,0,0.4,0.2,0.4,0.4s-0.2,0.4-0.4,0.4s-0.4-0.2-0.4-0.4S963.8,822.4,964,822.4z M964,823.6c0.2,0,0.4,0.2,0.4,0.4
	s-0.2,0.4-0.4,0.4s-0.4-0.2-0.4-0.4S963.8,823.6,964,823.6z M962.8,824.4c-0.2,0-0.4-0.2-0.4-0.4s0.2-0.4,0.4-0.4s0.4,0.2,0.4,0.4
	S963,824.4,962.8,824.4z M962.8,822.4c0.2,0,0.4,0.2,0.4,0.4s-0.2,0.4-0.4,0.4s-0.4-0.2-0.4-0.4S962.6,822.4,962.8,822.4z
	 M963.6,881.6c-3.2,0-5.8,2.6-5.8,5.8s2.6,5.8,5.8,5.8s5.8-2.6,5.8-5.8S966.8,881.6,963.6,881.6z M963,888.4c-0.2,0-0.4-0.2-0.4-0.4
	s0.2-0.4,0.4-0.4s0.4,0.2,0.4,0.4S963.2,888.4,963,888.4z M963,887.2c-0.2,0-0.4-0.2-0.4-0.4s0.2-0.4,0.4-0.4s0.4,0.2,0.4,0.4
	S963.2,887.2,963,887.2z M964.2,888.4c-0.2,0-0.4-0.2-0.4-0.4s0.2-0.4,0.4-0.4s0.4,0.2,0.4,0.4S964.4,888.4,964.2,888.4z
	 M964.2,887.2c-0.2,0-0.4-0.2-0.4-0.4s0.2-0.4,0.4-0.4s0.4,0.2,0.4,0.4S964.4,887.2,964.2,887.2z M963.6,859.8
	c-3.2,0-5.8,2.6-5.8,5.8s2.6,5.8,5.8,5.8s5.8-2.6,5.8-5.8C969.6,862.4,966.8,859.8,963.6,859.8z M963,866.8c-0.2,0-0.4-0.2-0.4-0.4
	s0.2-0.4,0.4-0.4s0.4,0.2,0.4,0.4S963.2,866.8,963,866.8z M963,865.6c-0.2,0-0.4-0.2-0.4-0.4s0.2-0.4,0.4-0.4s0.4,0.2,0.4,0.4
	S963.2,865.6,963,865.6z M964.2,866.8c-0.2,0-0.4-0.2-0.4-0.4s0.2-0.4,0.4-0.4s0.4,0.2,0.4,0.4S964.4,866.8,964.2,866.8z
	 M964.2,865.6c-0.2,0-0.4-0.2-0.4-0.4s0.2-0.4,0.4-0.4s0.4,0.2,0.4,0.4S964.4,865.6,964.2,865.6z M963.6,837.6
	c-3.2,0-5.8,2.6-5.8,5.8s2.6,5.8,5.8,5.8s5.8-2.6,5.8-5.8C969.6,840.2,966.8,837.6,963.6,837.6z M963,844.6c-0.2,0-0.4-0.2-0.4-0.4
	s0.2-0.4,0.4-0.4s0.4,0.2,0.4,0.4S963.2,844.6,963,844.6z M963,843.4c-0.2,0-0.4-0.2-0.4-0.4s0.2-0.4,0.4-0.4s0.4,0.2,0.4,0.4
	S963.2,843.4,963,843.4z M964.2,844.6c-0.2,0-0.4-0.2-0.4-0.4s0.2-0.4,0.4-0.4s0.4,0.2,0.4,0.4S964.4,844.6,964.2,844.6z
	 M964.2,843.4c-0.2,0-0.4-0.2-0.4-0.4s0.2-0.4,0.4-0.4s0.4,0.2,0.4,0.4S964.4,843.4,964.2,843.4z"/>
</svg>
