<?xml version="1.0" standalone="no"?>
<!DOCTYPE svg PUBLIC "-//W3C//DTD SVG 20010904//EN"
 "http://www.w3.org/TR/2001/REC-SVG-20010904/DTD/svg10.dtd">
<svg version="1.0" xmlns="http://www.w3.org/2000/svg"
 x="0px" y="0px" viewBox="0 0 1024 1024"
 preserveAspectRatio="preserve" style="enable-background:new 0 0 1024 1024;">

<style type="text/css">
    .st0{fill:#E6E7E8;}
    .st1{fill:#575756;}
    .st2{fill:#FFFFFF;}
</style>
<metadata>
Created by potrace 1.16, written by Peter Selinger 2001-2019
</metadata>
<g transform="translate(0.000000,1024.000000) scale(0.100000,-0.100000)"
fill="#000000" stroke="none">
<path id="ZONE_x28_MAIN_x29_" class="st1" d="M6489 8167 c-179 -166 -363 -336 -408 -377 -46 -41 -122 -111 -169
-157 l-87 -82 215 80 c118 44 241 91 273 105 31 13 57 22 57 20 0 -3 -612
-588 -991 -946 -30 -29 -215 -205 -325 -309 -401 -384 -544 -520 -656 -626
l-127 -120 4 -65 c3 -36 9 -292 15 -570 7 -278 13 -514 15 -526 4 -16 27 -27
122 -57 113 -35 316 -78 433 -92 l55 -6 188 270 c104 149 190 271 192 271 2 0
-56 -124 -130 -275 -88 -181 -130 -277 -122 -280 24 -9 447 -21 678 -18 464 4
840 51 1094 136 l100 33 16 595 c9 327 20 734 23 904 4 171 10 319 13 330 7
26 -17 2 -238 -241 -699 -766 -944 -1032 -948 -1029 -2 3 1 10 6 17 10 12 138
233 876 1508 170 294 313 540 317 545 5 6 14 223 21 482 l12 472 -37 38 c-40
40 -100 138 -131 213 -10 25 -21 48 -25 52 -3 4 -152 -129 -331 -295z"/>
<path id="ZONE_x28_SECOND_x29_" class="st1" d="M4110 8231 c0 -6 -25 -36 -55 -69 -63 -68 -139 -112 -244 -141 -69
-19 -79 -20 -141 -7 -93 20 -178 65 -255 137 l-65 61 0 -1696 0 -1696 35 0
c62 0 188 -31 247 -60 32 -16 99 -58 150 -93 96 -67 194 -120 285 -156 l53
-21 2 1875 c2 1031 0 1875 -4 1875 -5 0 -8 -4 -8 -9z"/>
<path id="ZONE_x28_THIRD_x29_" class="st1" d="M7098 6365 l2 -1875 53 21 c92 36 188 88 284 155 51 36 119 78 151
94 59 29 185 60 247 60 l35 0 0 1696 0 1696 -65 -61 c-77 -72 -162 -117 -255
-137 -62 -13 -72 -12 -139 6 -40 12 -94 31 -120 45 -55 28 -150 111 -170 149
-8 14 -17 26 -20 26 -3 0 -5 -844 -3 -1875z"/>
<path id="ZONE_x28_4_x29_" class="st1" d="M2891 7899 c-147 -137 -157 -150 -152 -203 1 -16 -4 -18 -34 -13 -39
6 -54 -4 -172 -116 -33 -32 -56 -47 -64 -42 -7 5 -10 4 -5 -3 5 -8 -48 -65
-128 -137 -92 -82 -246 -229 -243 -231 3 -3 111 35 162 57 11 5 52 20 90 35
39 14 102 37 140 51 39 14 83 32 98 40 16 8 31 13 33 10 3 -3 -603 -586 -767
-737 l-49 -45 0 -1022 0 -1023 253 0 c138 0 288 -2 332 -5 44 -3 172 -10 285
-15 113 -6 272 -18 354 -26 81 -8 150 -13 152 -11 2 2 8 172 13 378 16 567 20
735 27 964 l6 210 -30 -30 c-17 -16 -137 -147 -269 -291 -759 -832 -888 -972
-891 -969 -2 2 8 20 21 42 14 21 199 340 413 708 213 369 475 821 581 1005
l194 335 13 465 12 465 -62 66 c-34 37 -84 103 -111 148 l-50 81 -152 -141z"/>
<path id="ZONE_x28_5_x29_" class="st1" d="M2226 7919 c-14 -11 -26 -25 -26 -30 0 -15 36 -10 50 6 8 9 29 15 54
14 33 0 37 -2 19 -9 -12 -5 -25 -16 -30 -25 -5 -9 -22 -19 -38 -23 -34 -10
-46 -32 -16 -32 26 0 27 -21 1 -45 -23 -21 -53 -14 -43 11 4 12 1 15 -18 12
-33 -4 -40 -53 -9 -63 57 -18 149 40 137 87 -3 10 0 21 7 26 6 4 24 26 39 50
l27 42 -64 0 c-49 0 -69 -5 -90 -21z"/>
<path id="ZONE_x28_6_x29_" class="st1" d="M2390 7925 c-11 -13 -4 -15 51 -15 49 -1 60 -3 46 -11 -10 -6 -29
-35 -42 -65 -15 -34 -33 -58 -49 -66 -15 -6 -28 -9 -31 -6 -3 3 6 30 20 62 30
68 30 66 4 66 -15 0 -26 -14 -45 -57 -14 -32 -35 -69 -47 -82 l-22 -23 72 4
c87 4 102 16 149 113 19 39 42 76 51 83 14 10 3 12 -64 12 -59 0 -84 -4 -93
-15z"/>
<path id="ZONE_x28_7_x29_" class="st1" d="M5793 7397 c-116 -83 -151 -108 -258 -182 -56 -38 -340 -236 -631
-440 -291 -203 -555 -387 -586 -409 l-58 -40 1 -135 c1 -75 4 -149 8 -164 6
-28 6 -28 26 -10 59 55 594 539 810 733 138 123 259 233 270 243 11 11 127
116 258 234 273 248 284 260 160 170z"/>
<path id="ZONE_x28_8_x29_" class="st1" d="M1670 6867 c-25 -18 -81 -58 -125 -88 -44 -31 -142 -99 -218 -152
-76 -54 -142 -97 -147 -97 -4 0 -10 -4 -12 -8 -1 -4 -59 -47 -128 -95 -69 -48
-129 -90 -135 -95 -5 -4 -142 -99 -303 -211 l-292 -204 1 -111 c1 -61 4 -135
7 -165 l7 -53 25 24 c25 25 539 489 815 738 135 120 174 156 249 225 12 11 85
77 163 148 91 82 142 136 145 152 7 32 2 31 -52 -8z"/>
<path id="ZONE_x28_9_x29_" class="st1" d="M1675 6633 c-22 -20 -90 -84 -150 -142 -61 -58 -182 -173 -269 -256
-178 -168 -174 -164 -462 -440 -115 -111 -267 -257 -339 -325 -85 -81 -130
-130 -130 -144 0 -96 17 -692 22 -770 l6 -98 46 6 c128 16 426 37 652 46 l253
9 23 28 c18 21 22 23 14 6 -6 -12 -11 -24 -11 -27 0 -3 89 -6 198 -6 l197 0 0
1075 c0 591 -2 1075 -5 1075 -3 0 -23 -17 -45 -37z"/>
<path id="ZONE_x28_10_x29_" class="st1" d="M440 1250 l0 -170 1210 0 1210 0 0 170 0 170 -1210 0 -1210 0 0 -170z"/>
<path id="ZONE_x28_11_x29_" class="st1" d="M3450 1250 l0 -170 1210 0 1210 0 0 170 0 170 -1210 0 -1210 0 0
-170z"/>
</g>
</svg>
