<?xml version="1.0" encoding="UTF-8"?>
<!DOCTYPE svg PUBLIC "-//W3C//DTD SVG 1.1//EN" "http://www.w3.org/Graphics/SVG/1.1/DTD/svg11.dtd">
<!-- Creator: CorelDRAW 2021 (64-Bit) -->
<svg xmlns="http://www.w3.org/2000/svg" xml:space="preserve" width="118.07mm" height="64.68mm" version="1.1" style="shape-rendering:geometricPrecision; text-rendering:geometricPrecision; image-rendering:optimizeQuality; fill-rule:evenodd; clip-rule:evenodd"
viewBox="0 0 11807 6468"
 xmlns:xlink="http://www.w3.org/1999/xlink"
 xmlns:xodm="http://www.corel.com/coreldraw/odm/2003">
 <defs>
  <style type="text/css">
   <![CDATA[
    .fil1 {fill:#54d4a2}
    .fil2 {fill:#bb191f}
    .fil0 {fill:#ff8000}
   ]]>
  </style>
 </defs>
 <g id="Layer_x0020_1">
  <metadata id="CorelCorpID_0Corel-Layer"/>
  <g id="_1741871545168">
   <polygon id="A" class="fil0" points="-6.14,6468.59 -6.14,0.17 11801.52,0.17 11801.52,6468.59 ">
    <metadata id="CorelCorpID_1">
     <xodm:odm xodm:name="FillColor" xodm:value="A" xodm:type="0"/>
    </metadata>
   </polygon>
   <path id="C" class="fil1" d="M1027.03 6468.59l0 -6468.42 177.11 0 0 6468.42 -177.11 0zm5844.79 0l0 -6468.42 177.12 0 0 6468.42 -177.12 0z">
    <metadata id="CorelCorpID_2">
     <xodm:odm xodm:name="FillColor" xodm:value="C" xodm:type="0"/>
    </metadata>
   </path>
   <path id="B" class="fil2" d="M2975.3 6468.59l0 -6468.42 177.11 0 0 6468.42 -177.11 0zm5844.78 0l0 -6468.42 177.13 0 0 6468.42 -177.13 0zm-3896.52 0l0 -6468.42 177.11 0 0 6468.42 -177.11 0zm5844.79 0l0 -6468.42 177.11 0 0 6468.42 -177.11 0z">
    <metadata id="CorelCorpID_3">
     <xodm:odm xodm:name="FillColor" xodm:value="B" xodm:type="0"/>
    </metadata>
   </path>
  </g>
 </g>
</svg>
