<?xml version="1.0" encoding="utf-8"?>
<!-- Generator: Adobe Illustrator 26.0.1, SVG Export Plug-In . SVG Version: 6.00 Build 0)  -->
<svg version="1.1" id="Layer_1" xmlns="http://www.w3.org/2000/svg" xmlns:xlink="http://www.w3.org/1999/xlink" x="0px" y="0px"
	 viewBox="0 0 1024 1024" style="enable-background:new 0 0 1024 1024;" xml:space="preserve">
<style type="text/css">
	.st0{fill:#FFFFFF;}
	.st1{fill:#C7017F;}
	.st2{fill:#F59C00;}
</style>
<path id="ZONE_x28_base_x29_" class="st0" d="M258.6,459c4.8,0,101.2,43.6,101.2,43.6s-18.6,55.4-22.6,81.2s-8,52,16,72.8l24,20.8
	c0,0,5.8,82,3.6,107s10.6,228,10.6,228H8.8c0,0,12.8-203.2,12-225.4s-1.4-108.8,0.8-113.2s28-12.4,33.2-35s10.2-48-1-85.2
	s-16-52.4-16-52.4l98-42.2L258.6,459L258.6,459z M553.6,474l-97.2,39.4c0,0,6.8,16.6,12.6,39.4c5.8,22.8-2.4,57.4-12.8,75
	c-11.8,20-32.4,19.2-34.6,23.8c-2.2,4.4,8.2,113,9.2,135.2c0.8,22.2-12,225.4-12,225.4h382.4c0,0-10.4-203-10.6-228
	c-1-69.6,12.8-131.2,12.8-131.2s-37.2-6.6-46.6-44.8s10.6-90,10.6-90s-92.2-40.4-97.2-40.4L553.6,474L553.6,474z"/>
<path id="ZONE_x28_sleeves_x29_" class="st0" d="M37.6,282.2c0,0,24.2-9,28.6-14.2c15-18,42.6-44.6,54.2-50.8
	c14.4-7.8,36-16.6,96-14.4S315,263.2,318.2,266s31.8,16.6,31.8,16.6s-9.2,26.2-11.6,39.8c-2.2,13.6-0.4,39.8-0.4,39.8H49.2
	C51.2,324.6,37.6,282.2,37.6,282.2L37.6,282.2z M454.4,362.2h288.8c0,0-2-26.2,0.4-39.8c2.2-13.6,11.6-39.8,11.6-39.8
	s-28.6-14-31.8-16.6c-3-2.8-41.8-60.8-101.8-63.2s-81.6,6.6-96,14.4c-11.6,6.2-39.2,32.8-54.2,50.8c-4.4,5.4-28.6,14.2-28.6,14.2
	S456.2,324.6,454.4,362.2L454.4,362.2z"/>
<path id="ZONE_x28_inner-placket_x29_" class="st1" d="M914,825.8h21v91.4h-21V825.8z"/>
<path id="ZONE_x28_outer-placket_x29_" class="st0" d="M956.6,917.2L956.6,917.2v6.8l-48.2-0.4v-35.2l27.2,0.2V826h21V917.2z"/>
<path id="ZONE_x28_collar_x29_" class="st0" d="M813.2,661.2h48v345.4h-48V661.2z M867.4,657.8h35.2v355h-35.2V657.8z"/>
<path id="ZONE_x28_panels_x29_" class="st1" d="M415.6,614.6v406h43V670.8C458.4,650,425.4,622.4,415.6,614.6L415.6,614.6z
	 M348.8,670.8v349.8h43v-406C381.8,622.4,348.8,650,348.8,670.8z M12.6,614.6v406H57V670.8C57,650,22.8,622.4,12.6,614.6L12.6,614.6
	z M774,670.8v349.8h37.6v-406C803,622.4,774,650,774,670.8z M28.6,350H751v30H28.6V350z M852.4,654.8h9.8v356.8h-9.8V654.8z"/>
<path id="ZONE_x28_trim-and-piping_x29_" class="st2" d="M413.8,611.2v411.2h46.4V670.8C460.2,645.4,413.8,611.2,413.8,611.2z
	 M456.8,1019h-39.6V618.2c4.4,3.6,10.8,9.2,17.4,15.8c14.4,14.8,22.2,27.4,22.2,37V1019L456.8,1019z M347,670.8v351.6h46.4V611
	C393.4,611.2,347,645.4,347,670.8z M390,618.2V1019h-39.6V670.8c0-9.4,7.6-22.2,22.2-37C379,627.4,385.6,621.8,390,618.2z
	 M10.8,611.2v411.2h48V670.8C58.8,645.4,10.8,611.2,10.8,611.2z M55.2,1019H14.4V618.2c4.6,3.6,11.4,9.2,18,15.8
	c15,14.8,23,27.4,23,37L55.2,1019L55.2,1019z M772.4,670.8v351.6H813V611C813.2,611.2,772.4,645.4,772.4,670.8z M810.2,618.2V1019
	h-34.6V670.8c0-9.4,6.8-22.2,19.4-37C799.8,628.4,804.8,623.2,810.2,618.2z M28.6,348.4H751v3.4H28.6V348.4z M850.8,654.8h3.4v356.8
	h-3.4V654.8z"/>
<path class="st0" d="M963.6,829.2c3.2,0,5.8-2.6,5.8-5.8s-2.6-5.8-5.8-5.8s-5.8,2.6-5.8,5.8C957.8,826.6,960.4,829.2,963.6,829.2z
	 M964,822.4c0.2,0,0.4,0.2,0.4,0.4s-0.2,0.4-0.4,0.4s-0.4-0.2-0.4-0.4S963.8,822.4,964,822.4z M964,823.6c0.2,0,0.4,0.2,0.4,0.4
	s-0.2,0.4-0.4,0.4s-0.4-0.2-0.4-0.4S963.8,823.6,964,823.6z M962.8,824.4c-0.2,0-0.4-0.2-0.4-0.4s0.2-0.4,0.4-0.4s0.4,0.2,0.4,0.4
	S963,824.4,962.8,824.4z M962.8,822.4c0.2,0,0.4,0.2,0.4,0.4s-0.2,0.4-0.4,0.4s-0.4-0.2-0.4-0.4S962.6,822.4,962.8,822.4z
	 M963.6,881.6c-3.2,0-5.8,2.6-5.8,5.8s2.6,5.8,5.8,5.8s5.8-2.6,5.8-5.8S966.8,881.6,963.6,881.6z M963,888.4c-0.2,0-0.4-0.2-0.4-0.4
	s0.2-0.4,0.4-0.4s0.4,0.2,0.4,0.4S963.2,888.4,963,888.4z M963,887.2c-0.2,0-0.4-0.2-0.4-0.4s0.2-0.4,0.4-0.4s0.4,0.2,0.4,0.4
	S963.2,887.2,963,887.2z M964.2,888.4c-0.2,0-0.4-0.2-0.4-0.4s0.2-0.4,0.4-0.4s0.4,0.2,0.4,0.4S964.4,888.4,964.2,888.4z
	 M964.2,887.2c-0.2,0-0.4-0.2-0.4-0.4s0.2-0.4,0.4-0.4s0.4,0.2,0.4,0.4S964.4,887.2,964.2,887.2z M963.6,859.8
	c-3.2,0-5.8,2.6-5.8,5.8s2.6,5.8,5.8,5.8s5.8-2.6,5.8-5.8C969.6,862.4,966.8,859.8,963.6,859.8z M963,866.8c-0.2,0-0.4-0.2-0.4-0.4
	s0.2-0.4,0.4-0.4s0.4,0.2,0.4,0.4S963.2,866.8,963,866.8z M963,865.6c-0.2,0-0.4-0.2-0.4-0.4s0.2-0.4,0.4-0.4s0.4,0.2,0.4,0.4
	S963.2,865.6,963,865.6z M964.2,866.8c-0.2,0-0.4-0.2-0.4-0.4s0.2-0.4,0.4-0.4s0.4,0.2,0.4,0.4S964.4,866.8,964.2,866.8z
	 M964.2,865.6c-0.2,0-0.4-0.2-0.4-0.4s0.2-0.4,0.4-0.4s0.4,0.2,0.4,0.4S964.4,865.6,964.2,865.6z M963.6,837.6
	c-3.2,0-5.8,2.6-5.8,5.8s2.6,5.8,5.8,5.8s5.8-2.6,5.8-5.8C969.6,840.2,966.8,837.6,963.6,837.6z M963,844.6c-0.2,0-0.4-0.2-0.4-0.4
	s0.2-0.4,0.4-0.4s0.4,0.2,0.4,0.4S963.2,844.6,963,844.6z M963,843.4c-0.2,0-0.4-0.2-0.4-0.4s0.2-0.4,0.4-0.4s0.4,0.2,0.4,0.4
	S963.2,843.4,963,843.4z M964.2,844.6c-0.2,0-0.4-0.2-0.4-0.4s0.2-0.4,0.4-0.4s0.4,0.2,0.4,0.4S964.4,844.6,964.2,844.6z
	 M964.2,843.4c-0.2,0-0.4-0.2-0.4-0.4s0.2-0.4,0.4-0.4s0.4,0.2,0.4,0.4S964.4,843.4,964.2,843.4z"/>
</svg>
