<?xml version="1.0" encoding="utf-8"?>
<!-- Generator: Adobe Illustrator 26.0.1, SVG Export Plug-In . SVG Version: 6.00 Build 0)  -->
<svg version="1.1" id="Layer_1" xmlns="http://www.w3.org/2000/svg" xmlns:xlink="http://www.w3.org/1999/xlink" x="0px" y="0px"
	 viewBox="0 0 1024 1024" style="enable-background:new 0 0 1024 1024;" xml:space="preserve">
<style type="text/css">
	.st0{fill:#003160;}
	.st1{fill:#164194;}
	.st2{fill:#0090D7;}
	.st3{fill:#FFFFFF;}
</style>
<path id="ZONE_x28_base_x29_" class="st0" d="M258.6,459c4.8,0,101.2,43.6,101.2,43.6s-18.6,55.4-22.6,81.2s-8,52,16,72.8l24,20.8
	c0,0,5.8,82,3.6,107c-2.2,25,10.6,228,10.6,228H8.8c0,0,12.8-203.2,12-225.4c-0.8-22.2-1.4-108.8,0.8-113.2s28-12.4,33.2-35
	s10.2-48-1-85.2s-16-52.4-16-52.4l98-42.2L258.6,459L258.6,459z M553.6,474l-97.2,39.4c0,0,6.8,16.6,12.6,39.4
	c5.8,22.8-2.4,57.4-12.8,75c-11.8,20-32.4,19.2-34.6,23.8c-2.2,4.4,8.2,113,9.2,135.2c0.8,22.2-12,225.4-12,225.4h382.4
	c0,0-10.4-203-10.6-228c-1-69.6,12.8-131.2,12.8-131.2s-37.2-6.6-46.6-44.8c-9.4-38.2,10.6-90,10.6-90s-92.2-40.4-97.2-40.4
	L553.6,474L553.6,474z"/>
<path id="ZONE_x28_body-stripes-trim_x29_" class="st1" d="M411.2,568.2h396.4v30.2H411.2V568.2z M411.2,515h396.4v30.2H411.2V515z
	 M411.2,833.4h396.4v30.2H411.2V833.4z M411.2,780.4h396.4v30.2H411.2V780.4z M411.2,727.4h396.4v30.2H411.2V727.4z M411.2,674.2
	h396.4v30.2H411.2V674.2z M411.2,621.2h396.4v30.2H411.2V621.2z M411.2,886.6h396.4v30.2H411.2V886.6z M411.2,939.6h396.4v30.2
	H411.2V939.6z M411.2,992.6h396.4v30.2H411.2V992.6z M1.8,589.6h396.4V620H1.8V589.6z M1.8,536.6h396.4v30.2H1.8V536.6z M1.8,844.4
	l396.4,0.4V873H1.8V844.4z M1.8,795h396.4v28.8H1.8V795z M1.8,745.4h396.4v28.2H1.8V745.4z M1.8,693.2h396.4v30.2H1.8V693.2z
	 M1.8,642.8h396.4V673H1.8V642.8z M1.8,894.6l396.4-0.4v28.6H1.8V894.6z M1.8,944h396.4v28.6H1.8V944z M1.8,993.6h396.4v29.8H1.8
	V993.6z"/>
<path id="ZONE_x28_body-stripes_x29_" class="st2" d="M411.2,573.6h396.4v19.6H411.2V573.6z M411.2,520.6h396.4v19.6H411.2V520.6z
	 M411.2,838.8h396.4v19.6H411.2V838.8z M411.2,785.8h396.4v19.6H411.2V785.8z M411.2,732.8h396.4v19.6H411.2V732.8z M411.2,679.6
	h396.4v19.6H411.2V679.6z M411.2,626.6h396.4v19.6H411.2V626.6z M411.2,891.8h396.4v19.6H411.2V891.8z M411.2,945h396.4v19.6H411.2
	V945z M411.2,998h396.4v19.6H411.2V998z M1.8,595h396.4v19.6H1.8V595z M1.8,542h396.4v19.6H1.8V542z M1.8,849.8h396.4v18L1.8,868.4
	V849.8z M1.8,800.2h396.4v18L1.8,818.8V800.2z M1.8,750.2h396.4v18.6H1.8V750.2z M1.8,698.6l396.4,1.6v18.6L1.8,718.2V698.6z
	 M1.8,648.2h396.4v19.6H1.8V648.2z M1.8,899.6h396.4v17.8H1.8V899.6z M1.8,949h396.4v18.2L1.8,967.6V949z M1.8,999h396.4v19H1.8V999
	z"/>
<path id="ZONE_x28_inner-placket_x29_" class="st2" d="M914,825.8h21v91.4h-21V825.8z"/>
<path id="ZONE_x28_outer-placket_x29_" class="st1" d="M956.6,917.2L956.6,917.2v6.8l-48.2-0.4v-35.2l27.2,0.2V826h21V917.2z"/>
<path id="ZONE_x28_collar_x29_" class="st0" d="M813.2,661.2h48v345.4h-48V661.2z M867.4,657.8h35.2v355h-35.2V657.8z"/>
<path id="ZONE_x28_collar-trim_x29_" class="st2" d="M854.8,648.2h9V1016h-9V648.2z"/>
<path id="ZONE_x28_sleeves_x29_" class="st0" d="M37.6,282.2c0,0,24.2-9,28.6-14.2c15-18,42.6-44.6,54.2-50.8
	c14.4-7.8,36-16.6,96-14.4S315,263.2,318.2,266s31.8,16.6,31.8,16.6s-9.2,26.2-11.6,39.8c-2.2,13.6-0.4,39.8-0.4,39.8H49.2
	C51.2,324.6,37.6,282.2,37.6,282.2L37.6,282.2z M454.4,362.2h288.8c0,0-2-26.2,0.4-39.8c2.2-13.6,11.6-39.8,11.6-39.8
	s-28.6-14-31.8-16.6c-3-2.8-41.8-60.8-101.8-63.2s-81.6,6.6-96,14.4c-11.6,6.2-39.2,32.8-54.2,50.8c-4.4,5.4-28.6,14.2-28.6,14.2
	S456.2,324.6,454.4,362.2L454.4,362.2z"/>
<path id="ZONE_x28_sleeve-stripe_x29_" class="st2" d="M24.2,326h731v19.4h-731L24.2,326L24.2,326z"/>
<path id="ZONE_x28_sleeve-stripe-trim_x29_" class="st1" d="M24.2,345.4h731v4.4h-731L24.2,345.4L24.2,345.4z M24.2,321.6h731v4.4
	h-731L24.2,321.6L24.2,321.6z"/>
<path class="st3" d="M963.6,829.2c3.2,0,5.8-2.6,5.8-5.8s-2.6-5.8-5.8-5.8s-5.8,2.6-5.8,5.8C957.8,826.6,960.4,829.2,963.6,829.2z
	 M964,822.4c0.2,0,0.4,0.2,0.4,0.4s-0.2,0.4-0.4,0.4s-0.4-0.2-0.4-0.4S963.8,822.4,964,822.4z M964,823.6c0.2,0,0.4,0.2,0.4,0.4
	s-0.2,0.4-0.4,0.4s-0.4-0.2-0.4-0.4S963.8,823.6,964,823.6z M962.8,824.4c-0.2,0-0.4-0.2-0.4-0.4s0.2-0.4,0.4-0.4s0.4,0.2,0.4,0.4
	S963,824.4,962.8,824.4z M962.8,822.4c0.2,0,0.4,0.2,0.4,0.4s-0.2,0.4-0.4,0.4s-0.4-0.2-0.4-0.4S962.6,822.4,962.8,822.4z
	 M963.6,881.6c-3.2,0-5.8,2.6-5.8,5.8s2.6,5.8,5.8,5.8s5.8-2.6,5.8-5.8S966.8,881.6,963.6,881.6z M963,888.4c-0.2,0-0.4-0.2-0.4-0.4
	s0.2-0.4,0.4-0.4s0.4,0.2,0.4,0.4S963.2,888.4,963,888.4z M963,887.2c-0.2,0-0.4-0.2-0.4-0.4s0.2-0.4,0.4-0.4s0.4,0.2,0.4,0.4
	S963.2,887.2,963,887.2z M964.2,888.4c-0.2,0-0.4-0.2-0.4-0.4s0.2-0.4,0.4-0.4s0.4,0.2,0.4,0.4S964.4,888.4,964.2,888.4z
	 M964.2,887.2c-0.2,0-0.4-0.2-0.4-0.4s0.2-0.4,0.4-0.4s0.4,0.2,0.4,0.4S964.4,887.2,964.2,887.2z M963.6,859.8
	c-3.2,0-5.8,2.6-5.8,5.8s2.6,5.8,5.8,5.8s5.8-2.6,5.8-5.8C969.6,862.4,966.8,859.8,963.6,859.8z M963,866.8c-0.2,0-0.4-0.2-0.4-0.4
	s0.2-0.4,0.4-0.4s0.4,0.2,0.4,0.4S963.2,866.8,963,866.8z M963,865.6c-0.2,0-0.4-0.2-0.4-0.4s0.2-0.4,0.4-0.4s0.4,0.2,0.4,0.4
	S963.2,865.6,963,865.6z M964.2,866.8c-0.2,0-0.4-0.2-0.4-0.4s0.2-0.4,0.4-0.4s0.4,0.2,0.4,0.4S964.4,866.8,964.2,866.8z
	 M964.2,865.6c-0.2,0-0.4-0.2-0.4-0.4s0.2-0.4,0.4-0.4s0.4,0.2,0.4,0.4S964.4,865.6,964.2,865.6z M963.6,837.6
	c-3.2,0-5.8,2.6-5.8,5.8s2.6,5.8,5.8,5.8s5.8-2.6,5.8-5.8C969.6,840.2,966.8,837.6,963.6,837.6z M963,844.6c-0.2,0-0.4-0.2-0.4-0.4
	s0.2-0.4,0.4-0.4s0.4,0.2,0.4,0.4S963.2,844.6,963,844.6z M963,843.4c-0.2,0-0.4-0.2-0.4-0.4s0.2-0.4,0.4-0.4s0.4,0.2,0.4,0.4
	S963.2,843.4,963,843.4z M964.2,844.6c-0.2,0-0.4-0.2-0.4-0.4s0.2-0.4,0.4-0.4s0.4,0.2,0.4,0.4S964.4,844.6,964.2,844.6z
	 M964.2,843.4c-0.2,0-0.4-0.2-0.4-0.4s0.2-0.4,0.4-0.4s0.4,0.2,0.4,0.4S964.4,843.4,964.2,843.4z"/>
</svg>
