<?xml version="1.0" encoding="utf-8"?>
<!-- Generator: Adobe Illustrator 16.0.0, SVG Export Plug-In . SVG Version: 6.00 Build 0)  -->
<!DOCTYPE svg PUBLIC "-//W3C//DTD SVG 1.1//EN" "http://www.w3.org/Graphics/SVG/1.1/DTD/svg11.dtd">
<svg version="1.1" id="Layer_1" xmlns="http://www.w3.org/2000/svg" xmlns:xlink="http://www.w3.org/1999/xlink" x="0px" y="0px"
	 width="106px" height="88.699px" viewBox="0 0 106 88.699" enable-background="new 0 0 106 88.699" xml:space="preserve">
<g id="Ebene_1">
</g>
<g id="Ebene_2">
	<g>
		<path fill="#1A181C" d="M52.997,18.175c-30.665,0-46.746,22.587-46.746,26.176c0,3.589,16.077,26.174,46.746,26.174
			c30.672,0,46.754-22.585,46.754-26.174C99.751,40.762,83.669,18.175,52.997,18.175 M52.997,64.486
			c-11.466,0-20.779-9.011-20.779-20.14c0-11.116,9.308-20.141,20.779-20.141c11.474,0,20.781,9.024,20.781,20.141
			C73.778,55.476,64.471,64.486,52.997,64.486 M52.997,44.351c-1.898-2.092,3.101-10.077,0-10.077
			c-5.74,0-10.378,4.516-10.378,10.077c0,5.561,4.644,10.072,10.378,10.072c5.731,0,10.391-4.511,10.391-10.072
			C63.388,41.792,54.614,46.124,52.997,44.351"/>
	</g>
</g>
</svg>
