<?xml version="1.0" encoding="utf-8"?>
<!-- Generator: Adobe Illustrator 16.0.0, SVG Export Plug-In . SVG Version: 6.00 Build 0)  -->
<!DOCTYPE svg PUBLIC "-//W3C//DTD SVG 1.1//EN" "http://www.w3.org/Graphics/SVG/1.1/DTD/svg11.dtd">
<svg version="1.1" id="Layer_1" xmlns="http://www.w3.org/2000/svg" xmlns:xlink="http://www.w3.org/1999/xlink" x="0px" y="0px"
	 width="100px" height="100px" viewBox="0 0 100 100" enable-background="new 0 0 100 100" xml:space="preserve">
<g>
	<path d="M87.95,77.943L70.342,60.335c2.973-4.882,4.684-10.616,4.684-16.748c0-17.817-15.439-33.257-33.26-33.257
		c-17.818,0-32.263,14.445-32.263,32.265c0,17.818,15.439,33.255,33.256,33.255c5.924,0,11.474-1.604,16.245-4.39l17.714,17.715
		c1.939,1.939,5.084,1.939,7.021,0l4.915-4.913C90.593,82.324,89.89,79.883,87.95,77.943 M19.431,42.595
		c0-12.336,10-22.337,22.334-22.337c12.339,0,23.332,10.992,23.332,23.329c0,12.336-10.001,22.337-22.338,22.337
		C30.423,65.924,19.431,54.932,19.431,42.595"/>
	<g>
		<path d="M53.001,45.709H31.528c-1.447,0-2.618-1.173-2.618-2.62c0-1.445,1.171-2.617,2.618-2.617h21.473
			c1.445,0,2.618,1.171,2.618,2.617C55.619,44.536,54.446,45.709,53.001,45.709z"/>
	</g>
</g>
</svg>
