<?xml version="1.0" encoding="utf-8"?>
<!-- Generator: Adobe Illustrator 16.0.0, SVG Export Plug-In . SVG Version: 6.00 Build 0)  -->
<!DOCTYPE svg PUBLIC "-//W3C//DTD SVG 1.1//EN" "http://www.w3.org/Graphics/SVG/1.1/DTD/svg11.dtd">
<svg version="1.1" id="Layer_1" xmlns="http://www.w3.org/2000/svg" xmlns:xlink="http://www.w3.org/1999/xlink" x="0px" y="0px"
	 width="100px" height="100px" viewBox="0 0 100 100" enable-background="new 0 0 100 100" xml:space="preserve">
<g>
	<path d="M88.226,77.916l-17.59-17.591c2.968-4.877,4.677-10.604,4.677-16.732c0-17.798-15.424-33.223-33.227-33.223
		C24.288,10.37,9.856,24.8,9.856,42.603c0,17.8,15.424,33.223,33.223,33.223c5.918,0,11.462-1.603,16.228-4.387l17.697,17.697
		c1.938,1.938,5.078,1.938,7.013,0l4.911-4.908C90.865,82.292,90.163,79.854,88.226,77.916 M19.776,42.603
		c0-12.325,9.99-22.315,22.31-22.315c12.328,0,23.309,10.981,23.309,23.306c0,12.324-9.99,22.314-22.315,22.314
		C30.757,65.908,19.776,54.927,19.776,42.603"/>
	<g>
		<path d="M53.31,45.714h-21.45c-1.445,0-2.617-1.171-2.617-2.617c0-1.444,1.171-2.616,2.617-2.616h21.45
			c1.445,0,2.616,1.171,2.616,2.616C55.926,44.542,54.755,45.714,53.31,45.714z"/>
	</g>
	<g>
		<path d="M45.201,32.372v21.451c0,1.445-1.171,2.615-2.617,2.615s-2.616-1.17-2.616-2.615V32.372c0-1.444,1.17-2.616,2.616-2.616
			S45.201,30.928,45.201,32.372z"/>
	</g>
</g>
</svg>
